<svg xmlns="http://www.w3.org/2000/svg" width="675" height="450"><path fill="#012a87" d="M0 0h675v450H0z"/><path fill="#dc171d" d="M0 0h675v225H0z"/><path d="M0 0v450l300-225z" fill="#fff"/><path d="M151.516 169.815l.091-3.483s-1.87-2.98.3-6.181c0 0-4.612-2.44-3.538-6.261 0 0-4.17-1.067-3.864-5.654 0 0-4.501-.313-4.968-4.144 0 0-4.502.74-6.482-2.993 0 0-4.392.858-5.63-2.22 0 0-4.27 1.478-6.802-2.14 0 0-4.508 1.821-6.397-1.595-1.865 3.404-6.373 1.595-6.373 1.595-2.503 3.605-6.802 2.11-6.802 2.11-1.196 3.09-5.574 2.213-5.574 2.213-1.975 3.736-6.47 2.993-6.47 2.993-.442 3.821-4.938 4.133-4.938 4.133.356 4.6-3.808 5.643-3.808 5.643 1.098 3.82-3.509 6.253-3.509 6.253 2.227 3.22.374 6.176.374 6.176l-.104 3.213 74.507.344" fill="#ff0"/><path d="M377.175 843.108l.091-3.458s-1.857-2.958.298-6.136c0 0-4.578-2.422-3.512-6.215 0 0-4.139-1.059-3.835-5.613 0 0-4.468-.31-4.931-4.114 0 0-4.468.736-6.434-2.971 0 0-4.359.852-5.588-2.204 0 0-4.237 1.468-6.751-2.124 0 0-4.474 1.808-6.349-1.583-1.851 3.379-6.325 1.583-6.325 1.583-2.484 3.579-6.751 2.094-6.751 2.094-1.187 3.068-5.533 2.198-5.533 2.198-1.96 3.708-6.422 2.971-6.422 2.971-.438 3.793-4.9 4.103-4.9 4.103.353 4.566-3.78 5.601-3.78 5.601 1.09 3.792-3.482 6.208-3.482 6.208 2.21 3.196.371 6.131.371 6.131l-.103 3.189 73.949.342h-.012z" fill="#f9d90f" stroke="#000" stroke-width=".271" transform="matrix(1.00754 0 0 1.00735 -228.502 -679.491)"/><path d="M149.775 165.465c-11.703-1.171-25.178-3.949-35.58 1.908-6.973-4.109-16.682-3.858-24.95-3.053-4.489.803-9.77.803-14.461 1.57l-.736.103c-8.513.565-16.234-1.95-23.632-5.255 2.349 13.33 4.956 26.994 6.238 40.95 2.79 20.671-9.782 38.026-4.625 58.446 3.08 9.798 13.855 15.495 23.718 16.624 9.55.563 19.43 2.128 28.268 4.047 1.681.35 3.674 1.129 4.834 1.63 2.435 1.019 4.22 2.515 5.783 4.116 5.336-5.557 13.155-7.102 20.871-7.917 13.904-1.625 31.046-.742 39.56-13.336v-.713c4.624-6.965 4.01-17.592 2.005-25.485-.135-2.753-.87-5.181-1.27-7.806-8.494-22.431-1.22-47.658 2.436-70.268-4.466 2.44-9.446 3.593-14.413 4.814-3.962.528-8.378.288-12.389.072l-1.662-.447m17.485 64.376" fill="#dc171d"/><path d="M167.255 229.84c-.056 1.478.742 2.638 1.03 4.004 1.626 9.806 3.196 22.793-6.9 28.877-11.168 7.1-25.814 4.06-38.737 7.818-2.582.717-6.14 3.091-7.955 4.77-1.165-.766-2.336-1.944-3.84-2.636-10.634-5.654-24.458-3.76-36.461-6.813-6.03-1.907-12.315-6.604-13.843-12.774-3.925-16.188 5.477-29.985 4.367-46.045-.718-12.264-2.779-24.037-5.612-35.535 9.384 4.372 20.245 5.101 30.795 3.005 7.814-1.092 16.91-1.116 24.233 2.19 4.035-1.737 8.758-2.515 13.107-2.994 8.268.804 17.154 2.3 25.668 2.239 5.685-.296 10.85-1.939 15.793-4.128-2.932 19.004-8.562 38.91-1.65 58.023" fill="#62afe1"/><path d="M150.375 233.63l-.091-17.87h2.201l-27.317-17.642-.05-9.168h2.638l-13.66-9.78-13.59 9.774h2.63l.05 9.161-27.171 17.619 2.171.012.092 17.857 72.09.05" fill="#fff"/><path d="M376.042 906.458l-.091-17.739h2.185l-27.113-17.513-.049-9.101h2.618l-13.557-9.709-13.49 9.703h2.611l.049 9.094-26.967 17.49 2.155.012.091 17.727 71.551.049.006-.013z" fill="none" stroke="#000" stroke-width="1.164" transform="matrix(1.00754 0 0 1.00735 -228.502 -679.491)"/><path d="M158.772 257.104l.006 5.592-88.005-.098-.037-5.568 88.043.075" fill="#fff"/><path d="M384.376 929.761l.006 5.551-87.347-.097-.036-5.527 87.384.074h-.006z" fill="none" stroke="#000" stroke-width="1.164" transform="matrix(1.00754 0 0 1.00735 -228.502 -679.491)"/><path d="M76.617 256.766l-.073-18.924 3.564-.007-.197 19.145.215-18.99-5.134-.148v-4.06l78.653.087.037 4.023h-4.851l.091 19.162-.17-19.162h3.611l.08 18.947" fill="#fff"/><path d="M302.836 929.426l-.073-18.786 3.537-.007-.195 19.005.213-18.852-5.095-.146v-4.03l78.064.086.037 3.993h-4.815l.091 19.023-.17-19.023h3.585l.079 18.809m-58.475-4.698l-.055-13.1h-10.482l.061 13.087 10.476.013m0 0l-.055-13.1h-10.482l.061 13.087 10.476.013m0 0l-.055-13.1h-10.482l.061 13.087 10.476.013m0 0l-.055-13.1h-10.482l.061 13.087 10.476.013m0 0l-.055-13.1h-10.482l.061 13.087 10.476.013m-7.682-10.368l.03 7.609h4.797l-.024-7.609h-4.803m58.925 10.404l-.061-13.087-10.446-.012.049 13.099h10.458m-7.682-10.355l.055 7.585h4.791l-.043-7.585h-4.803m7.603-10.975l-.061-13.101h-10.458l.037 13.101h10.489-.006zm-7.682-10.343l.03 7.597h4.791l-.006-7.597h-4.815m-43.567 10.295l-.073-13.076-10.464-.013.049 13.082h10.489v.007zm-7.683-10.343l.024 7.585 4.803.012-.036-7.597h-4.791m26.651 10.366l-.049-13.076-10.47-.012.043 13.087h10.476m-7.676-10.353l.024 7.585 4.797.024-.03-7.609h-4.791m22.298 10.379l-.073-13.101-10.464-.012.049 13.087 10.489.025m-7.69-10.365l.037 7.609h4.797l-.024-7.609h-4.809" fill="none" stroke="#000" stroke-width="1.164" transform="matrix(1.00754 0 0 1.00735 -228.502 -679.491)"/><path d="M129.897 226.608l.117 30.421-30.562-.05-.11-30.395 30.55.024" fill="#fff"/><path d="M355.717 899.488l.116 30.199-30.333-.049-.11-30.174 30.321.024h.006zm-30.51 8.62l30.54.024m-30.54-.024l30.54.024m-30.54-.024l30.54.024m-30.54-.024l30.54.024m-30.54-.024l30.54.024m-26.729 21.543l-.103-21.342m23.228 21.354l-.103-21.329m14.75-21.732l-17.081-12.474-19.193-.024-16.947 12.449 53.222.049m-34.797-22.827l.03 7.609 16.144.012-.03-7.609-16.144-.012m0 0l.03 7.609 16.144.012-.03-7.609-16.144-.012" fill="none" stroke="#000" stroke-width="1.164" transform="matrix(1.00754 0 0 1.00735 -228.502 -679.491)"/><path d="M331.994 863.799l.03 7.609 16.144.012-.03-7.609-16.144-.012" fill="none" stroke="#000" stroke-width="1.164" transform="matrix(1.00754 0 0 1.00735 -228.502 -679.491)"/><path d="M336.371 865.686l.024 3.792h7.414l-.024-3.792h-7.414m3.665-10.544l8.979 6.348-17.891-.024 8.912-6.325m0 .001l8.979 6.348-17.891-.024 8.912-6.325m0 .001l8.979 6.348-17.891-.024 8.912-6.325m0 .001l8.979 6.348-17.891-.024 8.912-6.325m0 .001l8.979 6.348-17.891-.024 8.912-6.325" fill="none" stroke="#000" stroke-width="1.164" transform="matrix(1.00754 0 0 1.00735 -228.502 -679.491)"/><path d="M150.677 177.6c2.57-.06 3.232 10.585 3.238 15.858 2.207.62 7.102 3.698 9.267 6.482l-24.828-.037c2.134-2.747 6.993-5.837 9.182-6.456 0-5.28.54-15.919 3.14-15.857" fill="#fff"/><path d="M376.341 850.838c2.551-.061 3.208 10.507 3.214 15.742 2.191.615 7.049 3.671 9.198 6.434l-24.642-.036c2.118-2.727 6.94-5.795 9.113-6.409 0-5.242.536-15.803 3.117-15.742m-49.533 49.508h2.21l-.645 1.186m-1.565-1.186h2.21l-.645 1.186m-1.565-1.186h2.21l-.645 1.186m-1.565-1.186h2.21l-.645 1.186m-1.565-1.186h2.21l-.645 1.186s1.065 1.37.018 2.94l.578 1.09h-2.131l.578-1.035s-1.09-1.82.049-2.995l-.657-1.186m4.505 0h2.21l-.639 1.186s1.065 1.334.006 2.94l.572 1.09h-2.124l.572-1.035s-1.065-1.82.055-2.995l-.651-1.186m4.911 0h2.204l-.657 1.186s1.077 1.37.018 2.94l.578 1.114-2.112-.024.566-1.035s-1.077-1.808.043-2.995l-.645-1.186h.006zm5.546.011h2.222l-.651 1.199s1.065 1.346.006 2.922l.597 1.108h-2.143l.572-1.035s-1.065-1.832.073-2.995l-.67-1.199h-.006zm4.93 0h2.204l-.651 1.199s1.071 1.346.012 2.916l.584 1.114h-2.124l.554-1.035s-1.071-1.82.085-2.995l-.664-1.199m4.901.013l2.204-.012-.651 1.199s1.09 1.346.03 2.922l.554 1.108h-2.131l.572-1.035s-1.065-1.82.073-2.995l-.651-1.187" fill="none" stroke="#000" stroke-width="1.164" transform="matrix(1.00754 0 0 1.00735 -228.502 -679.491)"/><path d="M114.766 296.024c11.445.037 25.52-2.3 32.113-5.709l14.48-1.282.289 17.667c-12.267 6.763-40.59 8.216-46.822 8.167-6.237.05-34.91-1.428-47.232-8.216l.159-17.679 14.512 1.307c6.593 3.392 21.098 5.746 32.53 5.746h-.03" fill="#f9d90f"/><path d="M340.699 968.397c11.359.037 25.329-2.283 31.873-5.667l14.372-1.273.286 17.538c-12.175 6.714-40.286 8.156-46.471 8.108-6.191.049-34.649-1.418-46.879-8.156l.158-17.55 14.403 1.297c6.544 3.367 20.94 5.704 32.287 5.704h-.03" fill="none" stroke="#000" stroke-width=".271" transform="matrix(1.00754 0 0 1.00735 -228.502 -679.491)"/><path d="M30.318 220.666l12.757 4.06-3.858 20.653-12.076 1.876s-2.036-10.86 3.177-26.601" fill="#f9d90f"/><path d="M256.883 893.589l12.662 4.03-3.829 20.503-11.986 1.862s-2.021-10.781 3.153-26.407v.012z" fill="none" stroke="#000" stroke-width=".271" transform="matrix(1.00754 0 0 1.00735 -228.502 -679.491)"/><path d="M39.21 245.152l-12.07 2.103 7.636-10.86 4.434 8.757" fill="#7e7e7e"/><path d="M265.709 917.896l-11.98 2.088 7.579-10.781 4.401 8.693" fill="#f9b60f" stroke="#000" stroke-width=".271" transform="matrix(1.00754 0 0 1.00735 -228.502 -679.491)"/><path d="M22.688 235.543l12.297.889c.276 10.419 1.54 50.179 49.023 52.338l-1.478 14.465c-57.8.6-62.192-48.768-59.842-67.692" fill="#f9d90f"/><path d="M249.31 908.358l12.205.882c.274 10.343 1.528 49.813 48.656 51.956l-1.467 14.36c-57.367.596-61.726-48.413-59.394-67.198zm44.797 70.138l14.384-3.141m-14.384 3.141l14.384-3.141m-14.384 3.141l14.384-3.141m-14.384 3.141l14.384-3.141m-14.384 3.141l14.384-3.141" fill="none" stroke="#000" stroke-width=".271" transform="matrix(1.00754 0 0 1.00735 -228.502 -679.491)"/><path d="M198.21 220.813l-12.709 4.022 4.03 20.623 12.1 1.943s1.944-10.853-3.423-26.6" fill="#ff0"/><path d="M423.518 893.735l-12.613 3.993 3.999 20.472 12.01 1.929s1.93-10.774-3.397-26.406v.012z" fill="#f9d90f" stroke="#000" stroke-width=".271" transform="matrix(1.00754 0 0 1.00735 -228.502 -679.491)"/><path d="M189.53 245.243l12.1 2.171-7.739-10.865-4.36 8.694" fill="#7e7e7e"/><path d="M414.904 917.987l12.01 2.155-7.682-10.786-4.328 8.631" fill="#f9b60f" stroke="#000" stroke-width=".271" transform="matrix(1.00754 0 0 1.00735 -228.502 -679.491)"/><path d="M205.98 235.709l-12.316.84c-.178 10.407-1.085 50.185-48.57 52.294l1.614 14.454c57.787.668 61.762-48.677 59.271-67.594" fill="#f9d90f"/><path d="M431.23 908.522l-12.223.835c-.177 10.33-1.077 49.818-48.206 51.912l1.601 14.348c57.355.663 61.3-48.322 58.828-67.101v.005zm-44.194 70.053l-14.421-3.159" fill="none" stroke="#000" stroke-width=".271" transform="matrix(1.00754 0 0 1.00735 -228.502 -679.491)"/><path d="M107.081 304.731c-.325.209-.766.264-1.275.239l-2.294-.117.196-2.863 2.275.122c.447.03.803.117 1.025.252.46.239.662.68.62 1.293-.03.528-.215.872-.553 1.073m-3.852 4.508l.227-3.49 2.674.185c.865.068 1.508-.16 1.945-.601.453-.43.687-.994.717-1.631.056-.743-.135-1.35-.576-1.797-.423-.43-1.025-.656-1.779-.73l-3.82-.238-.528 8.216 1.134.074m8.323-6.862l2.797.03m-2.797-.03l2.797.03m-2.797-.03l2.797.03m-2.797-.03l2.797.03m-2.797-.03l2.797.03c.405.037.723.086.957.197.429.202.632.607.632 1.195 0 .552-.16.921-.473 1.142-.3.201-.735.294-1.257.294l-2.686-.03.024-2.827m-.044 7.28l.025-3.508 2.624.037c.467 0 .81.036 1.049.153.387.178.576.552.594 1.067l.068 1.38c.018.331.024.534.043.669.038.097.056.202.104.277h1.41l-.024-.179c-.159-.085-.288-.25-.343-.502-.05-.16-.074-.4-.086-.7l-.024-1.097c-.018-.497-.104-.84-.294-1.031a1.474 1.474 0 0 0-.743-.528c.393-.207.687-.447.902-.742.203-.326.306-.736.306-1.238 0-.944-.386-1.589-1.171-1.938-.424-.19-.964-.29-1.601-.3l-3.944-.038-.03 8.241h1.134m8.754-1.748c-.503-.613-.773-1.38-.834-2.287-.056-1.141.165-2.012.687-2.601.528-.638 1.208-.944 2.097-.993.896-.05 1.632.238 2.178.802.558.552.876 1.32.932 2.276.03.92-.13 1.735-.552 2.452-.418.73-1.11 1.141-2.134 1.165-1.067.056-1.865-.195-2.374-.815m-1.35-5.188c-.527.816-.742 1.76-.686 2.9.08 1.233.46 2.251 1.177 3.018.797.766 1.852 1.152 3.153 1.079 1.392-.062 2.441-.589 3.153-1.558.576-.876.852-1.895.79-3.152-.08-1.122-.404-2.036-1.011-2.716-.767-.914-1.89-1.318-3.41-1.257-1.435.092-2.49.619-3.171 1.686m38.738-11.852c.79-.135 1.478-.098 2.103.117.92.288 1.54.97 1.926 2.012l-1.135.159c-.245-.563-.594-.95-1.067-1.166-.46-.201-1.036-.251-1.698-.153a2.648 2.648 0 0 0-1.828 1.122c-.43.662-.558 1.546-.368 2.673.16.933.503 1.724 1.067 2.25.521.54 1.288.73 2.288.589.749-.123 1.35-.422 1.773-.938.44-.49.57-1.233.423-2.19l-2.644.406-.135-.908 3.68-.565.717 4.36-.73.11-.453-1.005c-.306.455-.614.804-.884 1.006-.453.356-1.067.583-1.833.693-.994.153-1.902-.025-2.724-.552-.902-.67-1.484-1.662-1.705-3.041-.238-1.355-.024-2.515.602-3.429.594-.882 1.46-1.397 2.625-1.563m8.322-.625l2.638-.957c.361-.134.675-.179.944-.147.484.037.84.325 1.043.901.19.49.19.92-.025 1.221-.226.312-.582.54-1.098.73l-2.477.889-1.025-2.637m2.638 6.813l-1.288-3.305 2.453-.883c.46-.147.78-.227 1.019-.202.435.055.767.32.987.821l.559 1.258c.122.313.22.503.3.589.037.11.117.178.178.25l1.331-.49-.073-.177c-.197 0-.386-.111-.528-.326-.104-.153-.203-.373-.344-.63l-.435-1.03c-.197-.448-.4-.724-.632-.89a2.106 2.106 0 0 0-.877-.24c.27-.312.467-.626.54-.993.08-.374.044-.791-.134-1.257-.338-.876-.958-1.354-1.828-1.416-.46-.036-.988.062-1.595.275l-3.705 1.319 2.994 7.75 1.085-.399m9.64-4.108l-4.704-6.862 5.164-3.293.57.828-4.231 2.704 1.448 2.097 3.907-2.514.534.803-3.907 2.514 1.595 2.312 4.305-2.754.57.81-5.256 3.354m4.12-12.128l1.35-1.484c.625-.662 1.287-.963 2.012-.876.723.061 1.46.44 2.245 1.128.214.165.405.38.601.62.344.447.546.84.675 1.232.111.492.086.94-.086 1.368-.103.214-.288.466-.564.767l-1.355 1.472-4.875-4.237m7.127 3.23c.957-1.053 1.166-2.189.608-3.47a5.873 5.873 0 0 0-1.509-1.956c-.864-.767-1.766-1.16-2.717-1.232-1.055-.08-1.95.3-2.73 1.152l-2.3 2.465 6.342 5.532 2.3-2.477m4.916-6.411l-7.299-4.287.595-.943 7.31 4.262-.601.98m2.86-4.99l-7.882-3.154 2.325-5.543.957.368-1.895 4.568 2.373.933 1.773-4.208.907.375-1.754 4.2 2.656 1.08 1.945-4.623.957.361-2.368 5.642m3.624-9.676l-8.292-1.834.276-1.28 7.66-2.589-6.728-1.484.246-1.005 8.292 1.784-.264 1.245-7.672 2.643 6.728 1.454-.239 1.067m-.664-10.53l.104-1.043c.479.013.884-.061 1.19-.226.602-.326.951-.944 1.043-1.859.037-.428.018-.803-.08-1.16-.178-.685-.564-1.066-1.184-1.128-.46-.049-.79.062-1.03.314-.215.288-.442.704-.614 1.293l-.38 1.085c-.245.711-.472 1.202-.717 1.477-.393.516-.944.693-1.65.645-.754-.08-1.367-.38-1.803-.957-.447-.528-.632-1.282-.52-2.215.073-.852.355-1.569.858-2.145.466-.528 1.19-.78 2.115-.681l-.085 1.042c-.454 0-.816.08-1.08.264-.478.264-.742.822-.822 1.637-.067.675.025 1.129.283 1.473.258.288.582.472.963.503.405.037.723-.092.944-.404.16-.216.35-.681.607-1.436l.374-1.14c.185-.528.405-.932.662-1.22.46-.478 1.061-.68 1.816-.624.92.097 1.576.478 1.913 1.177.332.705.46 1.484.38 2.367-.104 1-.43 1.784-1.03 2.312-.602.54-1.35.724-2.258.65m-171.895-.504l.19 1.03c-.46.092-.828.277-1.098.516-.484.453-.65 1.134-.484 2.06.073.392.214.777.392 1.085.368.625.847.876 1.454.777.448-.08.743-.25.884-.57.135-.313.233-.792.264-1.404l.055-1.16c.038-.717.117-1.281.276-1.594.252-.564.724-.914 1.43-1.03a2.454 2.454 0 0 1 1.986.466c.576.399.957 1.092 1.098 2.011.179.841.098 1.595-.233 2.275-.319.663-.932 1.067-1.87 1.239l-.185-1.042c.435-.159.76-.313.975-.528.368-.41.479-1.005.338-1.82-.11-.664-.338-1.093-.681-1.307-.338-.252-.675-.35-1.043-.288-.411.061-.681.288-.81.655-.08.245-.141.754-.197 1.534l-.055 1.201c-.03.564-.117 1.03-.306 1.35-.3.588-.81.95-1.552 1.067-.938.16-1.662-.055-2.177-.656-.528-.588-.853-1.293-1.018-2.17-.184-1.043-.05-1.852.368-2.502.423-.669 1.092-1.055 1.999-1.184m-.521 10.862l8.108-2.441 1.889 5.709-.988.312-1.545-4.691-2.466.742 1.43 4.335-.945.3-1.417-4.347-2.747.821 1.57 4.795-.97.277-1.919-5.813m3.594 9.897l7.458-3.955.797 1.391-5.128 5.42 7.49-1.28.772 1.38-7.44 3.93-.527-.915 4.391-2.31c.16-.093.405-.228.761-.417.35-.16.743-.375 1.135-.578l-7.458 1.27-.546-.97 5.09-5.402-.244.123c-.16.092-.435.227-.81.441a6.053 6.053 0 0 1-.822.441l-4.379 2.349-.54-.932m13.898 10.997c-.374-.086-.743-.3-1.104-.675l-1.576-1.625 2.122-1.944 1.589 1.62c.306.3.502.594.607.846.147.484 0 .926-.447 1.343-.405.374-.81.528-1.19.435m-5.992.755l2.6-2.386 1.846 1.87c.595.608 1.202.884 1.84.872a2.597 2.597 0 0 0 1.699-.742c.552-.49.816-1.067.816-1.686-.006-.601-.282-1.165-.791-1.692l-2.65-2.705-6.17 5.667.797.803m7.45 6.62l4.472-7.008 5.287 3.213-.552.834-4.343-2.6-1.343 2.122 3.993 2.421-.515.804-3.999-2.41-1.521 2.373 4.398 2.643-.528.828-5.348-3.22m13.236-1.355l2.686.853c.38.116.656.263.84.43.344.325.435.79.233 1.354-.165.49-.417.81-.81.945-.35.06-.791.06-1.307-.099l-2.533-.809.89-2.674m-2.319 6.886l1.117-3.342 2.503.816c.447.117.772.277.932.441.306.276.399.687.245 1.197l-.373 1.33c-.086.325-.13.54-.166.637 0 .105 0 .216.018.288l1.32.43.079-.191c-.141-.11-.22-.312-.215-.563.03-.154.074-.4.16-.681l.319-1.067c.129-.466.178-.816.061-1.067a1.678 1.678 0 0 0-.54-.73c.417-.074.78-.202 1.085-.43a2.28 2.28 0 0 0 .682-1.09c.3-.89.135-1.632-.528-2.196-.332-.294-.803-.546-1.423-.779l-3.753-1.158-2.625 7.818 1.098.337m11.395-142.282" fill="#012a87"/><path d="M69.043 154.354c.969-2.337 9.948-8.708 39.412-5.918 0 0 4.98 3.041 7.906 2.65 1.668-.216-.982.103-3.159-1.706-2.22-1.808-2.692-5.519 2.38-5.42 5.048.128 23.944 1.195 24.3 2.893.331 1.717-9.99 2.435-13.83 2.336-3.859-.103-3.411 1.847.429 1.7 11.996-.43 25.09-4.655 38.92 5.126 1.65 1.189-4.17 1.38-8.672-.534 0 0-12.2.633-17.474-.232 0 0-4.054 3.298-9.335 2.973.687 1.71-1.95 8.094-18.553 3.292-2.741.841-12.732 2.515-11.64-.453-2.631 0-7.244.846-7.931-.65-.662-1.471 8.12-3.699 9.66-5.292 0 0-18.578.178-22.098-1.104 0 0-10.96 2.459-10.316.325" fill="#bc715f"/><path d="M74.998 180.366c.4-.54.558-1.508 1.405-1.484 1.84.49 3.09 3.856 5.354 1.673.803-.178 1.11.915 1.772 1.043.423 1.87 1.926-.38 3.048-.252 2.398-1.067 5.366-1.319 8.206-.79.086 1.833-1.349 3.856-3.152 4.899.037 1.846 1.71 3.03 1.68 4.888-.288.693-.05 1.784-1.098 2.011-1.33-.238-2.644-.38-3.747-1.122-.135-.135-.245-.399-.528-.312-.135.62.834 1.233 1.214 1.864-.669 1.14-1.778.098-2.711.111-.276.656-.012 1.484-.687 1.907-1.178-.036-1.417-1.317-2.14-1.956-.743.803.52 1.281.699 1.919-.453 2.416-.393 4.777-2.809 6.36l-1.62.803c-.44-1.214-.164-3.054-.46-4.323-.957 1.557-1.704 2.919-3.109 4.237-1.643-.54-2.6-2.478-2.962-4.084-.687-1.87-.294-4.11 1.184-5.464-.503-.981-2.227-.755-2.472-2.152-2.582-1.681-4.01 2.944-5.68.54-.54-2.244.105-5.036 1.73-6.71-.36-.919-1.563-.68-2.274-1.208-1.625-1.38-3.969-2.838-3.852-5.33 4.446-1.679 9.764-.447 12.996 2.932" fill="#008830"/><path d="M77.305 180.115c-.104 2.035 1.374.551 2.471 1.784-.858-.337-1.484 1.484-2.324.441l-.528.504c.306.698.901.79.282 1.557-.92.35-1.104-.803-1.534-1.257-.073-.201.141-.582-.196-.717-.521.441-1.067.601-1.785.528-.196-.393-.576-.908-.19-1.208.705-.951 1.798.342 2.33-.325.086-.589-.429-1.307.24-1.712.46.08 1.048-.171 1.239.405m5.496 1.668c.055.393-.203.944.312 1.221.669-.363 1.38-.087 1.766.576-.006.355.104.821-.361.994l-1.043-.196c.073-.202-.258-.331-.387-.528-.46-.14-.73.233-1.073.46.258.392.852.607.711 1.11-.613.612-.914-.528-1.589-.24-.46-.177.165-1.134-.558-1.422-.858 0-.288 1.409-1.386.858-.393-.442-.78-1.037-.356-1.533.46-.308 1.24-.228 1.631.17.67-.74.736-3.604 2.337-1.47m-6.855 2.956c.448.644-.097 1.52.473 2.238.896-1.673 1.76.362 2.827.203.326.398.111.95.171 1.404-1.318.35-2.906.766-4.072-.288l-.326.373c.694.645 1.35 1.374.797 2.453-.987.215-2.514.24-3.011-.778-.258-.84.601-1.447-.306-2.122-.656.816-.626 1.908-1.993 1.166-.847-.467-1.099-1.429-.675-2.239.883-1.392 2.429.044 3.385-.637.135-1.196-.306-2.239.79-2.9.939-.167 1.375.538 1.945 1.127" fill="#f9d90f"/><path d="M79.696 185.468c-.44 2.036-1.974-.104-2.692-.19.957-1.699 1.558.552 2.692.19m4.778 2.214c-1.067.3-.902-1.03-1.429-1.552l.412-.374c.386.467.68 1.307 1.018 1.926" fill="#fff"/><path d="M83.026 187.277c.307.705-.693 1.27.16 1.784.27-.226.601-.54.742-.669.73.216 1.576.345 2.086 1.067.546 1.497-.97 1.46-1.828 1.877l-.852-.036c.202-.417-.368-.595-.51-.883-.392-.098-.717.024-.937.355.19.95 1.349 1.692.153 2.538-1.012-.066-2.582.326-2.49-1.073-.38-.79 1.031-2.011-.478-2.06-.497 1.067-1.043 2.097-2.337 1.085l.16-1.52c1.239.036 2.705.25 3.262-1.135.356-1.005-.62-1.932.252-2.729 1.263-.288 1.975.558 2.618 1.397" fill="#f9d90f"/><path d="M82.119 189.564c.319.754-.54.804-.945 1.178-.546.043-.925-.172-1.257-.54-.245-.914.435-1.006.957-1.367.608-.252.859.453 1.246.729"/><path d="M81.377 190.055c-.135.178-.325.122-.528.17l-.19-.912c.405.036.932.165.717.742" fill="#fff"/></svg>