<?xml version="1.0" encoding="UTF-8" standalone="no"?>
<!-- Creator: CorelDRAW -->

<svg
   xmlns:dc="http://purl.org/dc/elements/1.1/"
   xmlns:cc="http://creativecommons.org/ns#"
   xmlns:rdf="http://www.w3.org/1999/02/22-rdf-syntax-ns#"
   xmlns:svg="http://www.w3.org/2000/svg"
   xmlns="http://www.w3.org/2000/svg"
   xmlns:sodipodi="http://sodipodi.sourceforge.net/DTD/sodipodi-0.dtd"
   xmlns:inkscape="http://www.inkscape.org/namespaces/inkscape"
   xml:space="preserve"
   x="-132.87421"
   y="88.58268"
   width="900"
   height="600"
   viewBox="-1476 0 9997.4256 6664.973"
   id="svg2"
   version="1.1"
   inkscape:version="0.48.4 r9939"
   sodipodi:docname="TPENOC Flag.svg"><metadata
   id="metadata47"><rdf:RDF><cc:Work
       rdf:about=""><dc:format>image/svg+xml</dc:format><dc:type
         rdf:resource="http://purl.org/dc/dcmitype/StillImage" /></cc:Work></rdf:RDF></metadata><sodipodi:namedview
   pagecolor="#ffffff"
   bordercolor="#666666"
   borderopacity="1"
   objecttolerance="10"
   gridtolerance="10"
   guidetolerance="10"
   inkscape:pageopacity="0"
   inkscape:pageshadow="2"
   inkscape:window-width="1024"
   inkscape:window-height="706"
   id="namedview45"
   showgrid="false"
   inkscape:zoom="0.70710678"
   inkscape:cx="404.91636"
   inkscape:cy="352.96154"
   inkscape:window-x="-8"
   inkscape:window-y="-8"
   inkscape:window-maximized="1"
   inkscape:current-layer="svg2"
   fit-margin-top="0"
   fit-margin-left="0"
   fit-margin-right="0"
   fit-margin-bottom="0" />
 <defs
   id="defs4">
  <style
   type="text/css"
   id="style6">
   
    .fil6 {fill:#009240}
    .fil4 {fill:#1F1A17}
    .fil2 {fill:#DA251D}
    .fil0 {fill:#FFFFFF}
    .fil3 {fill:#0077BD}
    .fil1 {fill:#29166F}
    .fil5 {fill:#F1A737}
   
  </style>
 
  
  
  
  
  
  
  
  
  
  
  
  
  
  
  
 </defs>
 <rect
   style="fill:#ffffff"
   height="6664.9731"
   width="9997.459"
   y="0"
   x="-1476.005"
   class="fil0"
   id="74371120" /><g
   id="g10"
   transform="matrix(3.3855264,0,0,3.3849533,3521.032,0)">
   <ellipse
   d="m 433,631 c 0,239.1393 -193.8607,433 -433,433 -239.1393,0 -433,-193.8607 -433,-433 0,-239.1393 193.8607,-433 433,-433 239.1393,0 433,193.8607 433,433 z"
   style="fill:#29166f"
   sodipodi:ry="433"
   sodipodi:rx="433"
   sodipodi:cy="631"
   sodipodi:cx="0"
   ry="433"
   rx="433"
   cy="631"
   cx="0"
   class="fil1"
   id="74371208" />
   <path
   style="fill:#29166f"
   inkscape:connector-curvature="0"
   d="m -784,767 c 74,-226 319,-351 546,-278 226,74 351,319 278,546 -74,227 -319,352 -546,278 -227,-74 -352,-319 -278,-546 z"
   class="fil1"
   id="74371296" />
   <path
   style="fill:#29166f"
   inkscape:connector-curvature="0"
   d="m -485,1689 c -193,-140 -236,-412 -95,-605 140,-193 412,-236 604,-96 193,141 236,412 96,605 -140,193 -412,236 -605,96 z"
   class="fil1"
   id="74371384" />
   <path
   style="fill:#29166f"
   inkscape:connector-curvature="0"
   d="m 485,1689 c -193,140 -465,97 -605,-96 -140,-193 -97,-464 96,-605 192,-140 464,-97 604,96 141,193 98,465 -95,605 z"
   class="fil1"
   id="74371472" />
   <path
   style="fill:#29166f"
   inkscape:connector-curvature="0"
   d="M 784,767 C 858,994 733,1239 506,1313 279,1387 34,1262 -40,1035 -113,808 12,563 238,489 465,416 710,541 784,767 z"
   class="fil1"
   id="74371560" />
  </g><g
   id="g17"
   transform="matrix(3.3855264,0,0,3.3849533,3521.032,0)">
   <ellipse
   d="M 366,631 C 366,833.13622 202.13622,997 0,997 -202.13622,997 -366,833.13622 -366,631 -366,428.86378 -202.13622,265 0,265 c 202.13622,0 366,163.86378 366,366 z"
   style="fill:#ffffff"
   sodipodi:ry="366"
   sodipodi:rx="366"
   sodipodi:cy="631"
   sodipodi:cx="0"
   ry="366"
   rx="366"
   cy="631"
   cx="0"
   class="fil0"
   id="74371736" />
   <path
   style="fill:#ffffff"
   inkscape:connector-curvature="0"
   d="m 445,1635 c -163,119 -393,82 -511,-81 -119,-163 -82,-393 81,-511 163,-119 393,-83 511,81 119,163 82,393 -81,511 z"
   class="fil0"
   id="74372000" />
   <path
   style="fill:#ffffff"
   inkscape:connector-curvature="0"
   d="m -445,1635 c -163,-118 -200,-348 -81,-511 118,-164 348,-200 511,-81 163,118 200,348 81,511 -118,163 -348,200 -511,81 z"
   class="fil0"
   id="74371912" />
   <path
   style="fill:#ffffff"
   inkscape:connector-curvature="0"
   d="m -720,788 c 62,-192 269,-297 461,-235 192,62 297,270 235,461 -62,192 -270,298 -461,235 -192,-62 -298,-269 -235,-461 z"
   class="fil0"
   id="74371824" />
   <path
   style="fill:#ffffff"
   inkscape:connector-curvature="0"
   d="M 720,788 C 783,980 677,1187 485,1249 294,1312 86,1206 24,1014 -38,823 67,615 259,553 451,491 658,596 720,788 z"
   class="fil0"
   id="74372088" />
  </g><g
   id="g24"
   transform="matrix(3.3855264,0,0,3.3849533,3521.032,0)">
   <ellipse
   d="M 321,631 C 321,808.2834 177.2834,952 0,952 -177.2834,952 -321,808.2834 -321,631 -321,453.7166 -177.2834,310 0,310 c 177.2834,0 321,143.7166 321,321 z"
   style="fill:#da251d"
   sodipodi:ry="321"
   sodipodi:rx="321"
   sodipodi:cy="631"
   sodipodi:cx="0"
   ry="321"
   rx="321"
   cy="631"
   cx="0"
   class="fil2"
   id="74370064" />
   <path
   style="fill:#da251d"
   inkscape:connector-curvature="0"
   d="m -679,803 c 55,-168 237,-261 405,-206 168,54 260,236 206,404 -55,168 -236,261 -405,206 -168,-54 -260,-236 -206,-404 z"
   class="fil2"
   id="74366896" />
   <path
   style="fill:#da251d"
   inkscape:connector-curvature="0"
   d="m -419,1601 c -143,-104 -175,-306 -71,-449 104,-143 305,-174 448,-71 143,104 175,306 71,449 -104,143 -305,174 -448,71 z"
   class="fil2"
   id="74366632" />
   <path
   style="fill:#da251d"
   inkscape:connector-curvature="0"
   d="m 419,1601 c -143,103 -344,72 -448,-71 -104,-143 -72,-345 71,-449 143,-103 344,-72 448,71 104,143 72,345 -71,449 z"
   class="fil2"
   id="74466544" />
   <path
   style="fill:#da251d"
   inkscape:connector-curvature="0"
   d="M 679,803 C 733,971 641,1153 473,1207 304,1262 123,1169 68,1001 14,833 106,651 274,597 442,542 624,635 679,803 z"
   class="fil2"
   id="74466280" />
  </g><path
   style="fill:#ffffff"
   inkscape:connector-curvature="0"
   d="m 5721.6242,2745.1971 c 162.5052,504.3581 -115.1079,1049.3355 -619.5514,1215.1983 -6.771,3.3849 -13.5421,3.3849 -20.3131,6.7699 3.3855,6.7699 6.771,13.5398 13.5421,16.9247 311.4684,429.8891 213.2881,1035.7957 -213.2882,1347.2114 -429.9618,311.4158 -1035.9711,216.6371 -1347.4395,-213.252 -3.3855,-6.7699 -10.1566,-13.5398 -13.5421,-20.3097 -3.3855,6.7699 -10.1566,13.5398 -13.5421,20.3097 -311.4684,429.8891 -917.4777,524.6678 -1347.4395,213.252 -426.5763,-311.4157 -524.7566,-917.3223 -213.2882,-1347.2114 6.7711,-3.3849 10.1566,-10.1548 13.5421,-16.9247 -6.771,-3.385 -13.5421,-3.385 -20.3131,-6.7699 -504.4435,-165.8628 -782.0566,-710.8402 -619.5514,-1215.1983 165.8908,-504.358 710.9606,-781.9242 1215.404,-619.4464 6.7711,3.3849 13.5421,6.7699 20.3132,10.1548 0,-10.1548 0,-16.9247 0,-23.6946 0,-531.4377 433.3474,-964.7117 964.875,-964.7117 531.5276,0 964.875,433.274 964.875,964.7117 0,6.7699 0,13.5398 0,20.3097 6.7711,0 13.5421,-3.385 20.3132,-6.7699 504.4434,-162.4778 1049.5132,115.0884 1215.404,619.4464 z"
   class="fil0"
   id="74372352" /><ellipse
   d="m 219,787 c 0,120.95036 -98.04964,219 -219,219 -120.95036,0 -219,-98.04964 -219,-219 0,-120.95036 98.04964,-219 219,-219 120.95036,0 219,98.04964 219,219 z"
   style="fill:#29166f"
   sodipodi:ry="219"
   sodipodi:rx="219"
   sodipodi:cy="787"
   sodipodi:cx="0"
   ry="219"
   rx="219"
   cy="787"
   cx="0"
   class="fil1"
   id="74372440"
   transform="matrix(3.3857454,0,0,3.3857454,3521.032,-0.79683332)" /><g
   id="g33"
   transform="matrix(4.0628945,0,0,4.0768563,3521.032,-546.73954)">
   <ellipse
   d="m 73,787 c 0,40.31679 -32.683213,73 -73,73 -40.316787,0 -73,-32.68321 -73,-73 0,-40.31679 32.683213,-73 73,-73 40.316787,0 73,32.68321 73,73 z"
   style="fill:#ffffff"
   sodipodi:ry="73"
   sodipodi:rx="73"
   sodipodi:cy="787"
   sodipodi:cx="0"
   ry="73"
   rx="73"
   cy="787"
   cx="0"
   class="fil0"
   id="74372528"
   transform="matrix(1,0,0,0.99657535,0,3.1951996)" />
   <path
   style="fill:#ffffff"
   inkscape:connector-curvature="0"
   d="m 0,642 17,65 c -5,-2 -11,-2 -17,-2 -6,0 -12,0 -17,2 L 0,642 z m 25,67 48,-48 -18,65 C 47,718 37,712 25,709 z m 36,23 65,-17 -47,47 C 75,751 69,741 61,732 z m 20,38 65,17 -65,18 c 1,-6 2,-12 2,-18 0,-6 -1,-11 -2,-17 z m -2,43 47,47 -65,-17 c 8,-9 14,-19 18,-30 z m -24,36 18,65 -48,-48 c 12,-4 22,-10 30,-17 z M 17,868 0,933 -17,868 c 5,1 11,2 17,2 6,0 12,-1 17,-2 z m -42,-2 -48,48 18,-65 c 8,7 18,13 30,17 z m -36,-23 -65,17 47,-47 c 4,11 10,21 18,30 z m -20,-38 -65,-18 65,-17 c -1,6 -2,11 -2,17 0,6 1,12 2,18 z m 2,-43 -47,-47 65,17 c -8,9 -14,19 -18,30 z m 24,-36 -18,-65 48,48 c -12,3 -22,9 -30,17 z"
   class="fil0"
   id="74372616" />
  </g><path
   style="fill:#0077bd"
   inkscape:connector-curvature="0"
   d="m 2488.4464,3669.2894 c 247.1435,0 446.8895,199.7122 446.8895,443.4289 0,247.1016 -199.746,446.8138 -446.8895,446.8138 -247.1434,0 -446.8894,-199.7122 -446.8894,-446.8138 0,-243.7167 199.746,-443.4289 446.8894,-443.4289 z"
   class="fil3"
   id="74372792" /><path
   style="fill:#ffffff"
   inkscape:connector-curvature="0"
   d="m 2488.4464,3740.3734 c 206.5172,0 372.408,169.2477 372.408,372.3449 0,206.4821 -165.8908,375.7298 -372.408,375.7298 -206.5171,0 -372.4079,-169.2477 -372.4079,-375.7298 0,-203.0972 165.8908,-372.3449 372.4079,-372.3449 z"
   class="fil0"
   id="74372880" /><path
   style="fill:#000000"
   inkscape:connector-curvature="0"
   d="m 3521.032,3669.2894 c 247.1434,0 446.8895,199.7122 446.8895,443.4289 0,247.1016 -199.7461,446.8138 -446.8895,446.8138 -247.1434,0 -446.8895,-199.7122 -446.8895,-446.8138 0,-243.7167 199.7461,-443.4289 446.8895,-443.4289 z"
   class="fil4"
   id="74372968" /><path
   style="fill:#ffffff"
   inkscape:connector-curvature="0"
   d="m 3521.032,3740.3734 c 206.5171,0 372.4079,169.2477 372.4079,372.3449 0,206.4821 -165.8908,375.7298 -372.4079,375.7298 -206.5171,0 -372.4079,-169.2477 -372.4079,-375.7298 0,-203.0972 165.8908,-372.3449 372.4079,-372.3449 z"
   class="fil0"
   id="74373056" /><path
   style="fill:#da251d"
   inkscape:connector-curvature="0"
   d="m 4557.0031,3669.2894 c 243.7579,0 446.8895,199.7122 446.8895,443.4289 0,247.1016 -203.1316,446.8138 -446.8895,446.8138 -247.1434,0 -446.8895,-199.7122 -446.8895,-446.8138 0,-243.7167 199.7461,-443.4289 446.8895,-443.4289 z"
   class="fil2"
   id="74373144" /><path
   style="fill:#ffffff"
   inkscape:connector-curvature="0"
   d="m 4557.0031,3740.3734 c 203.1316,0 372.4079,169.2477 372.4079,372.3449 0,206.4821 -169.2763,375.7298 -372.4079,375.7298 -206.5171,0 -372.4079,-169.2477 -372.4079,-375.7298 0,-203.0972 165.8908,-372.3449 372.4079,-372.3449 z"
   class="fil0"
   id="74373232" /><path
   style="fill:#f1a737"
   inkscape:connector-curvature="0"
   d="m 3003.0465,4095.7935 c 226.8302,0 413.0342,165.8627 443.5039,385.8847 -27.0842,-6.7699 -54.1684,-16.9248 -77.8671,-27.0797 -40.6263,-165.8627 -189.5895,-287.721 -365.6368,-287.721 -23.6987,0 -47.3974,3.385 -71.0961,6.7699 0,-16.9247 3.3855,-37.2345 3.3855,-60.9291 0,-3.385 0,-6.7699 0,-13.5399 20.3132,-3.3849 44.0119,-3.3849 67.7106,-3.3849 z m 446.8894,460.3536 c -6.771,236.9468 -203.1315,429.8891 -446.8894,429.8891 -243.7579,0 -443.504,-199.7122 -443.504,-446.8138 0,-192.9424 125.2645,-362.19 301.3119,-419.7342 0,27.0796 -3.3856,54.1592 -10.1566,81.2388 -128.65,57.5443 -220.0592,189.5574 -220.0592,338.4954 0,206.4821 169.2763,375.7298 372.4079,375.7298 206.5171,0 375.7934,-169.2477 375.7934,-375.7298 0,0 0,0 0,-3.385 23.6987,10.1549 47.3974,16.9248 71.096,20.3097 z"
   class="fil5"
   id="74370680" /><path
   style="fill:#009240"
   inkscape:connector-curvature="0"
   d="m 4039.0175,4095.7935 c 223.4448,0 413.0343,165.8627 443.504,382.4997 -30.4697,-3.3849 -57.554,-13.5398 -81.2526,-23.6947 -40.6264,-165.8627 -186.204,-287.721 -362.2514,-287.721 -27.0842,0 -50.7829,3.385 -74.4815,6.7699 0,-16.9247 3.3855,-37.2345 3.3855,-60.9291 0,-3.385 0,-6.7699 0,-13.5399 23.6987,-3.3849 47.3974,-3.3849 71.096,-3.3849 z m 446.8895,460.3536 c -10.1566,236.9468 -206.5171,429.8891 -446.8895,429.8891 -247.1434,0 -446.8894,-199.7122 -446.8894,-446.8138 0,-192.9424 125.2644,-362.19 301.3118,-419.7342 0,27.0796 -3.3855,54.1592 -10.1566,81.2388 -128.65,60.9292 -216.6737,189.5574 -216.6737,338.4954 0,206.4821 165.8908,375.7298 372.4079,375.7298 206.5171,0 372.4079,-169.2477 372.4079,-375.7298 0,0 0,0 0,-3.385 23.6987,10.1549 47.3974,13.5398 74.4816,20.3097 z"
   class="fil6"
   id="97654008" />
</svg>