<svg xmlns="http://www.w3.org/2000/svg" viewBox="0 0 4251.968 2834.646" height="2834.646" width="4251.968"><path fill="#FFF" d="M0 0h4251.968v2834.646H0z"/><path d="M1325.822 1918.324s-3.442-23.3 40.807-40.387 47.69-80.774 38.84-123.232c0 0-23.108 40.387-51.131 53.849 0 0-45.724 23.818-47.816 69.318 0 0-.365 16.633-3.807 29.578-1.884 7.086-22.124-56.956 16.224-104.591 39.575-49.159 50.64-89.058 19.174-166.725 0 0-2.95 47.118-33.924 74.042s-34.914 28.996-34.416 93.2c0 0 .492 22.265-11.308 29.513 0 0-24.091-35.209-30.482-58.509s-9.341-33.138 18.191-60.062c0 0 88.205-56.999 24.583-181.741 0 0-1.967 42.976-32.449 68.347-30.482 25.371-28.024 42.458-29.499 86.469s-4.425 40.905-7.866 47.118c0 0-56.048-103.038-12.783-157.923 43.265-54.885 67.356-66.276 19.666-168.278 0 0 2.117 52.296-36.061 78.185-38.178 25.889-29.328 86.469-29.328 86.469s2.458 22.782-5.408 39.351c0 0-54.006-105.338-2.458-162.065 43.757-48.153 46.707-81.809 23.108-150.156 0 0-2.95 31.585-27.041 48.671-24.091 17.087-43.265 34.173-38.84 99.931 0 0 1.967 46.082-3.933 59.027 0 0-22.616-41.94-29.007-69.382-6.391-27.442-8.85-43.494 7.866-70.936 16.716-27.442 83.089-106.145 3.933-219.538 0 0-2.458 36.762-22.616 69.9-20.158 33.138-10.816 72.489-6.391 102.52 4.425 30.031-10.325 59.027-10.325 59.027s-34.415-63.169-27.041-135.658-22.124-132.034-88.989-175.009c0 0-48.673 112.876 17.699 170.349 0 0 56.54 55.92 70.798 123.749 0 0-42.773-4.142-81.614-79.738-38.84-75.596-119.471-63.687-124.879-64.205 0 0 13.275 117.018 137.17 150.156 0 0 79.156 13.462 93.905 71.453 0 0 13.275 39.869 18.683 61.098 0 0-25.074-9.838-48.182-44.011s-20.158-38.316-98.33-46.082c0 0-31.466-3.625-48.182-25.889 0 0 32.941 123.749 117.504 122.714 0 0 77.189-8.284 120.454 93.2 0 0-8.358-5.178-19.666-12.945s-39.824-22.264-96.363-15.533-72.273-2.589-86.53-7.249c0 0 57.031 104.591 137.662 73.525s119.575 82.217 120.454 84.398c0 0-10.816-8.285-25.074-22.265-14.258-13.98-43.858-31.219-99.805-13.462 0 0-40.315 15.533-81.122 3.107 0 0 39.332 76.114 131.27 63.169s115.046 67.829 115.046 67.829-12.291-7.249-20.649-13.98c-8.358-6.731-39.332-24.336-105.705-4.66-66.373 19.676-90.464-3.107-90.464-3.107s36.874 67.311 107.671 75.078c0 0 39.332-.518 56.048-6.731s60.965-16.051 91.447 27.96c0 0-8.358 1.553-21.141-4.142 0 0-47.198-17.087-83.089 12.944 0 0-31.957 32.62-77.189 26.407 0 0 58.506 56.956 151.428 8.802 0 0 31.466-22.782 54.573-5.178 23.109 17.608 76.699-17.084 76.699-17.084z" stroke-miterlimit="10" stroke-width="10" stroke="#010002" fill="#369443"/><path d="M1843.037 515.143s-10.793-96.359 66.209-105.627c80.303-9.665 119.963 7.249 119.963 7.249l36.054 70.763-12.455 47.636-49.821 22.782s8.522-73.179-58.56-74.702c-16.997-.386-26.987 6.355-53.869 2.088-27.038-4.291-41.498 25.419-47.521 29.811z" stroke-miterlimit="10" stroke-width="10" stroke="#010002" fill="#F4C53D"/><path d="M2384.835 753.666c-11.472 14.843-57.359 20.021-57.359 20.021s47.198 36.245 67.52 88.022c20.322 51.778-547.042.345-547.042.345s24.583-17.604 41.299-50.742c0 0-25.074 9.32-50.148-15.533 0 0 18.683 6.213 43.265-31.067 0 0 36.382-46.6 61.948-59.027 0 0-11.8 7.249-40.315-8.284 0 0 49.165-6.213 66.864-90.094 0 0 2.95-18.64 21.633-45.565s14.75 5.178 49.165-36.245c0 0 15.733-29.341 1.967-47.29-13.766-17.95-28.516-11.391-57.359-28.65-28.844-17.259-41.626-26.925-31.793-53.504 9.833-26.579 35.399-22.437 39.004-22.437s5.572-23.128 37.038-39.006c31.466-15.879 115.046-8.975 127.501-2.071 12.455 6.904 62.931 21.747 92.43 96.307s-7.866 102.52 72.437 215.051c0 0-32.121 6.904-52.771.69-.002 0 41.624 73.87 114.716 109.079z" stroke-miterlimit="10" stroke-width="10" stroke="#010002" fill="#F4C53D"/><path d="M2033.797 439.029c-65.389-3.107-40.315-65.413-40.315-65.413" stroke-miterlimit="10" stroke-width="10" stroke="#010002" fill="none"/><path d="M2147.368 447.572s-11.554-5.437-21.328-18.381c-13.716-18.165-44.308-26.924-60.778-9.838 0 0-16.716 18.64-31.466 19.676 0 0 16.716 5.178 28.27 15.792s23.599 18.381 40.807 16.051c17.208-2.33 19.912-11.391 28.024-16.828 8.113-5.436 16.471-6.472 16.471-6.472z" stroke-miterlimit="10" stroke-width="10" stroke="#010002" fill="#F4C53D"/><path d="M2572.643 1378.798s60.965 49.707 112.096 0c0 0 20.649 24.853 61.948 17.604s48.182-28.996 52.115-41.422c0 0 35.727 20.842 65.881 4.38 30.155-16.462 30.155-41.315 30.155-41.315s52.443 10.338 79.32-25.207c26.877-35.545 10.489-70.754-3.933-74.897 0 0 56.7 14.854 72.109-33.828 13.111-41.422-16.388-62.824-16.388-62.824s119.469-.574 168.472-37.97c0 0 40.643-25.544 16.388-52.468 0 0 107.508-17.259 134.384-60.062 0 0 11.8-11.736 7.866-32.448 0 0-.656-11.736-12.455-12.427 0 0 122.6-18.937 157.983-59.372 0 0 17.044-18.64 8.522-43.493 0 0-1.803-6.559-4.753-10.96 0 0 111.604-23.559 166.669-73.266 0 0 31.787-28.32 15.399-66.291 0 0 186.505-51.072 143.24-133.227 0 0 87.186-28.305 59.654-107.008 0 0 72.109-36.59 40.643-94.581-30.114-55.5-122.585 9.665-232.081 39.96 0 0-296.279 93.282-442.187 118.107l-414.573 617.222-241.892 93.2-24.582 172.593z" stroke-width="10" stroke="#010002" fill="#F4C53D"/><path d="M2569.693 924.188s38.857-29.17 108.163 5.178c0 0 23.333 16.068 41.688-1.536 15.336-14.709 16.775-41.831-4.322-57.49-51.623-38.316-70.798-153.263 7.866-200.898 0 0 114.063-67.656 532.319-174.095 0 0 35.045-9.717 53.728-5.057 20.572 5.131 34.743 22.782 37.65 37.886 0 0 18.716 53.188-44.206 83.62 0 0-28.408 13-57.687 21.402 0 0 32.16-6.952 45.887 24.853 13.111 30.376-5.9 61.443-64.898 81.464 0 0-15.958 6.21-38.677 11.736 0 0 50.476 14.498 26.221 55.23 0 0-21.633 42.803-98.002 50.397 0 0 57.031 6.213 16.716 60.408 0 0-17.699 29.686-73.42 40.732 0 0 42.282 1.381 20.977 39.351-21.305 37.97-71.439 59.372-120.775 62.824 0 0-26.72 1.381-45.403-2.762 0 0 46.871 23.473 19.338 62.824 0 0-20.322 27.96-71.125 26.579 0 0 13.187 43.945-24.091 60.58-29.007 12.944-53.098-7.767-53.098-7.767s9.833 47.118-32.449 63.687c0 0-21.141 10.873-52.607 0 0 0-24.091 53.849-109.638 16.051-85.545-37.798-20.155-355.197-20.155-355.197z" stroke-width="10" stroke="#010002" fill="#F4C53D"/><path d="M3887.314 432.298s-134.384 77.806-552.896 155.612" stroke-width="10" stroke="#010002" fill="none"/><path d="M1487.316 1808.209s-49.82 85.606-110.13 86.987c0 0-103.741-12.628-133.073 14.498-20.454 18.915-41.299 34.519-49.821 82.845-8.522 48.326 16.388 58.682 22.288 60.753 0 0 4.589 34.519 38.676 25.544 0 0 1.967 35.899 62.276 18.64s85.219-11.736 97.019-71.799c11.8-60.062 22.694-59.079 33.432-66.276 14.422-9.665 41.517-18.8 61.62-30.376 18.061-10.4 87.186-45.565 110.785-48.326 23.599-2.761 18.355-82.154 18.355-82.154h-60.964l-29.499-43.493-60.964 53.157z" stroke-width="10" stroke="#010002" fill="#F4C53D"/><path d="M3827.66 539.306s-363.718 118.646-533.1 133.227M3684.42 672.532s-213.37 66.981-463.237 109.247M3502.352 812.089s-241.072 57.905-356.164 67.515" stroke-width="10" stroke="#010002" fill="none"/><path d="M3340.599 925.914s-203.909 42.526-255.573 47.64" stroke-miterlimit="10" stroke-width="10" stroke="#010002" fill="none"/><path stroke-miterlimit="10" stroke-width="10" stroke="#010002" fill="#0081C6" d="M3111.074 1236.043l10.212 323.553-57.132-33.142-95.112 410.596-39.245-28.193 92.586-393.371-64.559 1.187z"/><path d="M3210.804 1030.851s-148.806 22.61-208.029 21.401M3025.944 1121.29s-60.166-2.826-89.081-7.626M2970.223 1217.942s-51.132-13.807-81.286-33.138M2894.837 1318.046s-39.332-15.188-58.343-56.61M2798.801 1354.981s-30.482-27.27-32.449-57.646" stroke-miterlimit="10" stroke-width="10" stroke="#010002" fill="none"/><path stroke-miterlimit="10" stroke-width="10" stroke="#010002" fill="#0081C6" d="M3480.606 1379.919l-135.217 290.729-35.671-57.51-285.475 337.323-30.913-34.605 284.396-333.054-57.531-30.872z"/><path d="M2684.739 1378.798s11.413-9.845 3.605-52.641" stroke-miterlimit="10" stroke-width="10" stroke="#010002" fill="none"/><path stroke-miterlimit="10" stroke-width="10" stroke="#010002" fill="#0081C6" d="M3357.268 1166.508l-69.652 315.312-47.041-47.585-255.505 491.294-39.372-22.983 257.225-490.291-62.651-16.451z"/><path d="M2699.488 1263.334s5.9-12.254 3.933-31.584" stroke-miterlimit="10" stroke-width="10" stroke="#010002" fill="none"/><path d="M1679.326 1378.8s-60.965 49.707-112.096 0c0 0-20.649 24.853-61.948 17.604s-48.182-28.996-52.115-41.422c0 0-35.727 20.842-65.881 4.38-30.155-16.462-30.155-41.315-30.155-41.315s-52.443 10.338-79.319-25.207c-26.877-35.545-10.489-70.754 3.933-74.897 0 0-56.7 14.854-72.109-33.828-13.111-41.422 16.388-62.824 16.388-62.824s-119.47-.574-168.472-37.97c0 0-40.643-25.544-16.388-52.468 0 0-107.507-17.259-134.384-60.062 0 0-11.8-11.736-7.866-32.448 0 0 .656-11.736 12.455-12.427 0 0-122.6-18.937-157.983-59.372 0 0-17.044-18.64-8.522-43.493 0 0 1.803-6.559 4.753-10.96 0 0-111.604-23.559-166.669-73.266 0 0-31.787-28.32-15.399-66.291 0 0-186.506-51.072-143.24-133.227 0 0-87.186-28.305-59.654-107.008 0 0-72.109-36.59-40.643-94.581 30.114-55.5 122.585 9.665 232.081 39.96 0 0 296.279 93.282 442.187 118.107l414.573 617.222 241.892 93.2 24.581 172.593z" stroke-width="10" stroke="#010002" fill="#F4C53D"/><path d="M2914.503 650.456s-68.831 27.615-91.775 65.585c-22.944 37.971-7.833 74.874 0 96.048 3.936 10.639 52.443 104.16-4.589 171.816" stroke-miterlimit="10" stroke-width="10" stroke="#010002" fill="none"/><path d="M1682.276 924.189s-38.857-29.17-108.163 5.178c0 0-23.333 16.068-41.687-1.536-15.336-14.709-16.775-41.831 4.322-57.49 51.623-38.316 70.798-153.263-7.866-200.898 0 0-114.063-67.656-532.319-174.095 0 0-35.045-9.717-53.728-5.057-20.572 5.131-34.743 22.782-37.65 37.886 0 0-18.715 53.188 44.206 83.62 0 0 28.408 13 57.687 21.402 0 0-32.16-6.952-45.887 24.853-13.111 30.376 5.9 61.443 64.898 81.464 0 0 15.957 6.21 38.676 11.736 0 0-50.476 14.498-26.221 55.23 0 0 21.633 42.803 98.002 50.397 0 0-57.031 6.213-16.716 60.408 0 0 17.699 29.686 73.42 40.732 0 0-42.282 1.381-20.977 39.351 21.305 37.971 71.439 59.372 120.775 62.824 0 0 26.72 1.381 45.403-2.761 0 0-46.871 23.473-19.338 62.824 0 0 20.321 27.96 71.125 26.579 0 0-13.187 43.945 24.091 60.58 29.007 12.944 53.098-7.767 53.098-7.767s-9.833 47.118 32.449 63.687c0 0 21.141 10.873 52.606 0 0 0 24.091 53.849 109.638 16.051 85.545-37.799 20.156-355.198 20.156-355.198z" stroke-width="10" stroke="#010002" fill="#F4C53D"/><path d="M2913.52 1057.43s-.328-.345-24.583-7.939M3058.72 958.016s-41.026 8.26-81.286 8.63M3115.424 856.877s-48.182 4.833-93.414 4.142M3187.205 751.25s-69.487 13.807-106.852 14.498M3244.892 633.196s-85.698 24.461-149.462 33.138M2953.835 716.731s61.62 57.301-12.455 110.46c0 0 30.81 48.326-30.81 98.723" stroke-miterlimit="10" stroke-width="10" stroke="#010002" fill="none"/><path d="M1687.35 1413.579s-12.552 67.393-112.091 152.219c0 0-76.799 67.746-74.833 145.758 2.003 79.44-13.766 88.368-43.921 115.292 0 0 62.276 4.833 92.43-36.59 0 0-1.311 69.037-10.489 75.251 0 0 19.532 1.245 47.854-29.686 0 0 17.044-17.95 32.777-24.853 0 0-18.355 47.636-3.933 91.819 0 0 4.589-17.259 28.843-24.853 0 0 43.921-8.975 60.965-72.489 0 0 11.144-42.113 79.975-79.393 0 0 78.008-29.422 76.042-67.87s-173.619-244.605-173.619-244.605z" stroke-width="10" stroke="#010002" fill="#F4C53D"/><path d="M2926.958 949.734s9.177 92.154-103.574 92.159c0 0 21.633 82.158-87.186 79.397 0 0-12.455 65.585-91.119 52.468" stroke-miterlimit="10" stroke-width="10" stroke="#010002" fill="none"/><path d="M2764.766 1808.21s49.821 85.606 110.13 86.987c0 0 103.741-12.628 133.073 14.498 20.454 18.916 41.299 34.519 49.821 82.845s-16.388 58.682-22.288 60.753c0 0-4.589 34.519-38.677 25.544 0 0-1.967 35.899-62.276 18.64s-85.219-11.736-97.019-71.799-22.694-59.079-33.432-66.276c-14.422-9.665-41.517-18.8-61.62-30.376-18.061-10.4-87.186-45.565-110.785-48.326-23.599-2.761-18.355-82.154-18.355-82.154h60.964l29.499-43.494 60.965 53.158z" stroke-width="10" stroke="#010002" fill="#F4C53D"/><path d="M2564.731 1413.581s12.552 67.393 112.091 152.22c0 0 76.8 67.746 74.833 145.758-2.003 79.44 13.766 88.368 43.921 115.292 0 0-62.276 4.833-92.43-36.59 0 0 1.311 69.037 10.489 75.251 0 0-19.532 1.246-47.854-29.686 0 0-17.044-17.95-32.777-24.853 0 0 18.355 47.636 3.933 91.82 0 0-4.589-17.259-28.844-24.853 0 0-43.921-8.975-60.965-72.489 0 0-11.144-42.113-79.975-79.393 0 0-78.009-29.422-76.042-67.87 1.967-38.45 173.62-244.607 173.62-244.607z" stroke-width="10" stroke="#010002" fill="#F4C53D"/><path d="M2818.355 1895.197s17.839 3.97 56.54 0" stroke-width="10" stroke="#010002" fill="none"/><path d="M2983.714 1943.523s54.409-8.284 51.787 109.769M2950.937 1970.448s49.165-6.213 45.887 108.389" stroke-miterlimit="10" stroke-width="10" stroke="#010002" fill="none"/><path d="M2476.331 1694.299s23.599 4.833 39.988 23.473c16.388 18.64 47.854 15.188 47.854 15.188s-17.044-13.807-22.944-48.326c-5.9-34.519-24.91-44.874-24.91-44.874M2572.618 1607.071s23.599 4.833 39.987 23.473 47.854 15.188 47.854 15.188-17.044-13.807-22.944-48.326c-5.9-34.519-24.91-44.874-24.91-44.874M2588.844 1741.069s20.605 4.219 34.914 20.495c14.309 16.275 41.783 13.261 41.783 13.261s-14.882-12.056-20.033-42.195c-5.151-30.139-21.75-39.181-21.75-39.181" stroke-width="10" stroke="#010002" fill="none"/><path d="M2203.159 2282.496s17.869 78.856 79.975 72.489c0 0 43.921-4.142 40.643-77.322 0 0 64.898 34.519 75.386-51.088 0 0 58.998 13.808 58.342-66.276 0 0 55.065 9.665 48.51-61.443 0 0 59.654 15.878 59.654-51.088 0 0 139.628-23.157-151.428-288.576l-259.591 154.643 48.509 368.661z" stroke-miterlimit="10" stroke-width="10" stroke="#010002" fill="#F4C53D"/><path d="M2174.316 1928.61s43.265 38.385 74.075-18.916c0 0 41.954-2.071 48.51-33.828 0 0 34.088-3.452 40.643-35.899 0 0 46.543-4.833 45.232-44.184 0 0 84.618-6.532.027-102.334s-228.153 158.945-228.153 158.945l19.666 76.216z" stroke-width="10" stroke="#010002" fill="#F4C53D"/><path d="M2323.777 2277.663s-6.555-138.765-126.823-337.594M2399.164 2226.576s18.683-80.083-150.773-316.881c0 0 19.666-56.61-40.643-92.855M2457.506 2160.3s5.244-86.642-160.605-284.433c0 0 14.65-51.088-45.445-91.82M2506.015 2098.857s-6.228-87.677-168.472-258.89c0 0 8.117-52.468-50.023-84.916M2565.669 2047.769s-11.8-100.104-182.894-251.986c0 0 5.9-39.351-51.132-79.393" stroke-miterlimit="10" stroke-width="10" stroke="#010002" fill="none"/><path d="M2048.922 2282.495s-17.869 78.856-79.975 72.489c0 0-43.921-4.142-40.643-77.322 0 0-64.898 34.519-75.386-51.087 0 0-58.998 13.807-58.342-66.276 0 0-55.065 9.665-48.509-61.443 0 0-59.654 15.879-59.654-51.088 0 0-139.628-23.157 151.428-288.576l259.591 154.643-48.51 368.66z" stroke-miterlimit="10" stroke-width="10" stroke="#010002" fill="#F4C53D"/><path d="M2077.766 1928.61s-43.265 38.385-74.075-18.915c0 0-41.954-2.071-48.509-33.828 0 0-34.088-3.452-40.643-35.899 0 0-46.543-4.833-45.232-44.184 0 0-84.618-6.532-.027-102.334s228.153 158.945 228.153 158.945l-19.667 76.215z" stroke-width="10" stroke="#010002" fill="#F4C53D"/><path d="M1928.304 2277.663s6.555-138.765 126.824-337.594M1852.918 2226.575s-18.683-80.083 150.773-316.881c0 0-19.666-56.611 40.643-92.855" stroke-miterlimit="10" stroke-width="10" stroke="#010002" fill="none"/><path d="M2126.041 1904.862c41.94 0 89.463 261.996 77.13 419.842-4.479 57.327-35.19 104.151-77.13 104.151s-72.651-46.824-77.13-104.151c-12.333-157.845 35.19-419.842 77.13-419.842" stroke-width="10" stroke="#010002" fill="#F4C53D"/><path d="M1794.575 2160.299s-5.244-86.642 160.606-284.433c0 0-14.651-51.088 45.445-91.82M1746.066 2098.856s6.228-87.677 168.472-258.89c0 0-8.117-52.468 50.023-84.916" stroke-miterlimit="10" stroke-width="10" stroke="#010002" fill="none"/><ellipse ry="85.951" rx="58.032" cy="1902.791" cx="2126.041" stroke-width="10" stroke="#010002" fill="#F4C53D"/><path d="M1686.412 2047.769s11.8-100.104 182.894-251.986c0 0-5.9-39.351 51.132-79.393" stroke-miterlimit="10" stroke-width="10" stroke="#010002" fill="none"/><path d="M2126.041 1884.017s492.201-218.11 493.429-722.685h-986.859c1.229 504.574 493.43 722.685 493.43 722.685z" stroke-width="10" stroke="#010002" fill="#FFF"/><path stroke-miterlimit="10" stroke-width="10" stroke="#010002" fill="none" d="M1860.348 1161.331h75.912M1708.523 1161.331h75.913M2012.173 1161.331h75.912"/><path d="M1708.523 1161.331v322.397s37.701 74.773 75.912 121.668v-444.064h-75.912zM1860.348 1161.331v531.451s47.473 46.55 75.912 68.989v-600.44h-75.912zM2012.173 1161.331v656.92s54.16 34.979 75.912 46.458v-703.378h-75.912z" stroke-width="10" stroke="#010002" fill="#A60032"/><path stroke-width="10" stroke="#010002" fill="none" d="M1708.523 1161.331h75.913M1860.348 1161.331h75.912M2012.173 1161.331h75.912"/><path d="M2543.557 1161.331v322.397s-37.701 74.773-75.912 121.667v-444.064h75.912zM2391.732 1161.331v531.451s-47.473 46.55-75.912 68.989v-600.44h75.912zM2239.908 1161.331v656.92s-54.161 34.979-75.912 46.458v-703.378h75.912z" stroke-width="10" stroke="#010002" fill="#A60032"/><path fill="none" d="M2645.964 2371.942l-45.721 55.918M2543.557 2365.729l126.005 116.495"/><path d="M2921.787 2075.339l-19.139 78.25 52.396 52.196-74.053 312.797-65.867-88.472-97.596 45.55 74.054-312.798 68.656-19.142 17.826-78.111c0 .001 20.766-8.131 43.723 9.73z" stroke-miterlimit="10" stroke-width="10" stroke="#010002" fill="#0081C6"/><path d="M2939.33 2023.741l-37.718 70.367 37.783 64.7-148.402 281.954-41.88-103.411-105.465 17.396 148.403-281.955 71.021.224 36.415-70.591c0 .001 26.491-.054 39.843 21.316z" stroke-miterlimit="10" stroke-width="10" stroke="#010002" fill="#0081C6"/><path d="M2945.698 2044.204l-100.322 127.45 22.995 71.992-204.824 239.57-18.718-110.682-106.477-8.035 204.824-239.571 69.153 17.044 106.412-135.301c.001.001 28.541 14.174 26.957 37.533z" stroke-miterlimit="10" stroke-width="10" stroke="#010002" fill="#0081C6"/><path d="M364.655 432.299s134.384 77.806 552.895 155.612M424.308 539.307s363.717 118.646 533.1 133.227M567.549 672.533s213.37 66.981 463.237 109.247M749.616 812.09s241.072 57.905 356.164 67.515" stroke-width="10" stroke="#010002" fill="none"/><path d="M911.369 925.915s203.909 42.526 255.573 47.64M1041.165 1030.852s148.806 22.61 208.029 21.401M1226.025 1121.291s60.166-2.826 89.081-7.626M1281.745 1217.943s51.132-13.807 81.286-33.138M1357.132 1318.047s39.332-15.188 58.342-56.61M1453.167 1354.982s30.482-27.27 32.449-57.646M1567.23 1378.8s-11.413-9.845-3.605-52.641M1552.48 1263.335s-5.9-12.254-3.933-31.585M1337.466 650.457s68.831 27.615 91.775 65.585c22.944 37.971 7.833 74.874 0 96.048-3.936 10.639-52.443 104.16 4.589 171.816M1338.449 1057.431s.328-.345 24.583-7.939M1193.248 958.018s41.026 8.26 81.286 8.63M1136.545 856.878s48.182 4.833 93.413 4.142" stroke-miterlimit="10" stroke-width="10" stroke="#010002" fill="none"/><path d="M1315.627 2061.29s-1.475-41.938 51.621-45.044l156.337 217.456s-5.9 13.979-76.693 12.426c0 0-7.498-.049-11.431 8.235-6.039 12.717-119.834-193.073-119.834-193.073z" stroke-miterlimit="10" stroke-width="10" stroke="#010002" fill="#369443"/><path d="M1064.764 751.251s69.486 13.807 106.852 14.498M1007.077 633.197s85.698 24.461 149.462 33.138M1298.134 716.732s-61.62 57.301 12.455 110.46c0 0-30.81 48.326 30.81 98.723M1325.01 949.735s-9.177 92.154 103.574 92.159c0 0-21.633 82.158 87.186 79.397 0 0 12.455 65.585 91.119 52.468" stroke-miterlimit="10" stroke-width="10" stroke="#010002" fill="none"/><path d="M1433.564 1895.196s-17.839 3.97-56.54 0" stroke-width="10" stroke="#010002" fill="none"/><path d="M1268.206 1943.522s-54.409-8.285-51.787 109.769M1300.983 1970.446s-49.165-6.213-45.887 108.388" stroke-miterlimit="10" stroke-width="10" stroke="#010002" fill="none"/><path d="M1775.75 1694.297s-23.599 4.833-39.988 23.473-47.854 15.188-47.854 15.188 17.044-13.807 22.944-48.326c5.9-34.519 24.91-44.874 24.91-44.874M1679.463 1607.07s-23.599 4.833-39.987 23.473-47.854 15.188-47.854 15.188 17.044-13.807 22.944-48.326c5.9-34.519 24.91-44.874 24.91-44.874M1663.237 1741.068s-20.605 4.219-34.914 20.495c-14.309 16.275-41.783 13.261-41.783 13.261s14.882-12.056 20.033-42.195c5.151-30.139 21.75-39.181 21.75-39.181" stroke-width="10" stroke="#010002" fill="none"/><path d="M2619.471 794.743s-241.518 126.338-493.429-10.356c-251.911 136.694-493.429 10.356-493.429 10.356v366.588h986.859V794.743z" stroke-miterlimit="10" stroke-width="10" stroke="#010002" fill="#162667"/><path d="M403.725 1745.405c23.917-9.763 41.14-19.185 41.067-44.706-.017-6.084-3.398-19.544-10.184-40.379l-160.591-490.801c-9.511-29.158-16.699-46.49-20.035-52.877-7.219-13.822-21.39-19.451-40.477-27.401h204.108c-22.172 10.477-42.387 18.795-42.197 42.302.072 8.975 2.598 21.632 7.804 37.976l123.024 385.136 122.902-385.136c5.206-16.344 7.898-29 7.809-37.976-.237-24.159-21.287-32.868-41.971-42.302h197.809c-18.087 7.248-32.827 12.926-40.4 27.401-3.34 6.385-10.524 23.72-20.03 52.877L571.772 1660.32c-6.792 20.835-9.25 34.522-10.185 40.86 0 0-7.389 31.04 41.068 44.225h-198.93zM3825.99 1694.931v-555.696c0-9.614-1.585-16.982-4.75-22.112-3.17-5.122-16.965-19.896-36.651-27.881H3968.503c-19.686 6.518-33.486 22.353-36.651 27.641-3.17 5.288-4.75 12.738-4.75 22.353v555.696c0 9.937 1.638 17.546 4.92 22.834 3.276 5.287 16.795 18.194 36.481 27.64H3784.589c19.686-8.957 33.48-22.75 36.651-27.881 3.166-5.123 4.75-12.657 4.75-22.594z" stroke-miterlimit="10" stroke-width="10" stroke="#010002" fill="#0081C6"/></svg>