<?xml version="1.0" encoding="UTF-8" standalone="no"?>
<svg
   xmlns:dc="http://purl.org/dc/elements/1.1/"
   xmlns:cc="http://creativecommons.org/ns#"
   xmlns:rdf="http://www.w3.org/1999/02/22-rdf-syntax-ns#"
   xmlns:svg="http://www.w3.org/2000/svg"
   xmlns="http://www.w3.org/2000/svg"
   xml:space="preserve"
   enable-background="new 0 0 4251.968 2834.646"
   viewBox="0 0 4251.968 2834.646"
   height="2834.646px"
   width="4251.968px"
   y="0px"
   x="0px"
   id="Capa_1"
   version="1.1"><metadata
     id="metadata225"><rdf:RDF><cc:Work
         rdf:about=""><dc:format>image/svg+xml</dc:format><dc:type
           rdf:resource="http://purl.org/dc/dcmitype/StillImage" /><dc:title></dc:title></cc:Work></rdf:RDF></metadata><defs
     id="defs223" /><rect
     id="rect3"
     height="2834.646"
     width="4251.968"
     fill="#FFFFFF"
     y="0"
     x="0" /><path
     id="path5"
     d="M1325.822,1918.324  c0,0-3.442-23.3,40.807-40.387c44.249-17.087,47.69-80.774,38.84-123.232c0,0-23.108,40.387-51.131,53.849  c0,0-45.724,23.818-47.816,69.318c0,0-0.365,16.633-3.807,29.578c-1.884,7.086-22.124-56.956,16.224-104.591  c39.575-49.159,50.64-89.058,19.174-166.725c0,0-2.95,47.118-33.924,74.042c-30.974,26.924-34.914,28.996-34.416,93.2  c0,0,0.492,22.265-11.308,29.513c0,0-24.091-35.209-30.482-58.509s-9.341-33.138,18.191-60.062c0,0,88.205-56.999,24.583-181.741  c0,0-1.967,42.976-32.449,68.347c-30.482,25.371-28.024,42.458-29.499,86.469s-4.425,40.905-7.866,47.118  c0,0-56.048-103.038-12.783-157.923c43.265-54.885,67.356-66.276,19.666-168.278c0,0,2.117,52.296-36.061,78.185  c-38.178,25.889-29.328,86.469-29.328,86.469s2.458,22.782-5.408,39.351c0,0-54.006-105.338-2.458-162.065  c43.757-48.153,46.707-81.809,23.108-150.156c0,0-2.95,31.585-27.041,48.671c-24.091,17.087-43.265,34.173-38.84,99.931  c0,0,1.967,46.082-3.933,59.027c0,0-22.616-41.94-29.007-69.382c-6.391-27.442-8.85-43.494,7.866-70.936  c16.716-27.442,83.089-106.145,3.933-219.538c0,0-2.458,36.762-22.616,69.9c-20.158,33.138-10.816,72.489-6.391,102.52  c4.425,30.031-10.325,59.027-10.325,59.027s-34.415-63.169-27.041-135.658s-22.124-132.034-88.989-175.009  c0,0-48.673,112.876,17.699,170.349c0,0,56.54,55.92,70.798,123.749c0,0-42.773-4.142-81.614-79.738  c-38.84-75.596-119.471-63.687-124.879-64.205c0,0,13.275,117.018,137.17,150.156c0,0,79.156,13.462,93.905,71.453  c0,0,13.275,39.869,18.683,61.098c0,0-25.074-9.838-48.182-44.011c-23.108-34.173-20.158-38.316-98.33-46.082  c0,0-31.466-3.625-48.182-25.889c0,0,32.941,123.749,117.504,122.714c0,0,77.189-8.284,120.454,93.2c0,0-8.358-5.178-19.666-12.945  c-11.308-7.767-39.824-22.264-96.363-15.533s-72.273-2.589-86.53-7.249c0,0,57.031,104.591,137.662,73.525  s119.575,82.217,120.454,84.398c0,0-10.816-8.285-25.074-22.265c-14.258-13.98-43.858-31.219-99.805-13.462  c0,0-40.315,15.533-81.122,3.107c0,0,39.332,76.114,131.27,63.169s115.046,67.829,115.046,67.829s-12.291-7.249-20.649-13.98  c-8.358-6.731-39.332-24.336-105.705-4.66c-66.373,19.676-90.464-3.107-90.464-3.107s36.874,67.311,107.671,75.078  c0,0,39.332-0.518,56.048-6.731s60.965-16.051,91.447,27.96c0,0-8.358,1.553-21.141-4.142c0,0-47.198-17.087-83.089,12.944  c0,0-31.957,32.62-77.189,26.407c0,0,58.506,56.956,151.428,8.802c0,0,31.466-22.782,54.573-5.178  C1272.232,1953.016,1325.822,1918.324,1325.822,1918.324z"
     stroke-miterlimit="10"
     stroke-width="10"
     stroke="#010002"
     fill="#369443" /><path
     id="path7"
     d="M1843.037,515.143  c0,0-10.793-96.359,66.209-105.627c80.303-9.665,119.963,7.249,119.963,7.249l36.054,70.763l-12.455,47.636l-49.821,22.782  c0,0,8.522-73.179-58.56-74.702c-16.997-0.386-26.987,6.355-53.869,2.088C1863.52,481.041,1849.06,510.751,1843.037,515.143z"
     stroke-miterlimit="10"
     stroke-width="10"
     stroke="#010002"
     fill="#F4C53D" /><path
     id="path9"
     d="M2384.835,753.666  c-11.472,14.843-57.359,20.021-57.359,20.021s47.198,36.245,67.52,88.022c20.322,51.778-547.042,0.345-547.042,0.345  s24.583-17.604,41.299-50.742c0,0-25.074,9.32-50.148-15.533c0,0,18.683,6.213,43.265-31.067c0,0,36.382-46.6,61.948-59.027  c0,0-11.8,7.249-40.315-8.284c0,0,49.165-6.213,66.864-90.094c0,0,2.95-18.64,21.633-45.565s14.75,5.178,49.165-36.245  c0,0,15.733-29.341,1.967-47.29c-13.766-17.95-28.516-11.391-57.359-28.65c-28.844-17.259-41.626-26.925-31.793-53.504  c9.833-26.579,35.399-22.437,39.004-22.437s5.572-23.128,37.038-39.006c31.466-15.879,115.046-8.975,127.501-2.071  c12.455,6.904,62.931,21.747,92.43,96.307s-7.866,102.52,72.437,215.051c0,0-32.121,6.904-52.771,0.69  C2270.117,644.587,2311.743,718.457,2384.835,753.666z"
     stroke-miterlimit="10"
     stroke-width="10"
     stroke="#010002"
     fill="#F4C53D" /><path
     id="path11"
     d="M2033.797,439.029  c-65.389-3.107-40.315-65.413-40.315-65.413"
     stroke-miterlimit="10"
     stroke-width="10"
     stroke="#010002"
     fill="none" /><path
     id="path13"
     d="M2147.368,447.572  c0,0-11.554-5.437-21.328-18.381c-13.716-18.165-44.308-26.924-60.778-9.838c0,0-16.716,18.64-31.466,19.676  c0,0,16.716,5.178,28.27,15.792s23.599,18.381,40.807,16.051c17.208-2.33,19.912-11.391,28.024-16.828  C2139.01,448.608,2147.368,447.572,2147.368,447.572z"
     stroke-miterlimit="10"
     stroke-width="10"
     stroke="#010002"
     fill="#F4C53D" /><path
     id="path15"
     d="M2572.643,1378.798c0,0,60.965,49.707,112.096,0  c0,0,20.649,24.853,61.948,17.604s48.182-28.996,52.115-41.422c0,0,35.727,20.842,65.881,4.38  c30.155-16.462,30.155-41.315,30.155-41.315s52.443,10.338,79.32-25.207c26.877-35.545,10.489-70.754-3.933-74.897  c0,0,56.7,14.854,72.109-33.828c13.111-41.422-16.388-62.824-16.388-62.824s119.469-0.574,168.472-37.97  c0,0,40.643-25.544,16.388-52.468c0,0,107.508-17.259,134.384-60.062c0,0,11.8-11.736,7.866-32.448c0,0-0.656-11.736-12.455-12.427  c0,0,122.6-18.937,157.983-59.372c0,0,17.044-18.64,8.522-43.493c0,0-1.803-6.559-4.753-10.96c0,0,111.604-23.559,166.669-73.266  c0,0,31.787-28.32,15.399-66.291c0,0,186.505-51.072,143.24-133.227c0,0,87.186-28.305,59.654-107.008  c0,0,72.109-36.59,40.643-94.581c-30.114-55.5-122.585,9.665-232.081,39.96c0,0-296.279,93.282-442.187,118.107l-414.573,617.222  l-241.892,93.2L2572.643,1378.798z"
     stroke-width="10"
     stroke="#010002"
     fill="#F4C53D" /><path
     id="path17"
     d="M2569.693,924.188c0,0,38.857-29.17,108.163,5.178  c0,0,23.333,16.068,41.688-1.536c15.336-14.709,16.775-41.831-4.322-57.49c-51.623-38.316-70.798-153.263,7.866-200.898  c0,0,114.063-67.656,532.319-174.095c0,0,35.045-9.717,53.728-5.057c20.572,5.131,34.743,22.782,37.65,37.886  c0,0,18.716,53.188-44.206,83.62c0,0-28.408,13-57.687,21.402c0,0,32.16-6.952,45.887,24.853  c13.111,30.376-5.9,61.443-64.898,81.464c0,0-15.958,6.21-38.677,11.736c0,0,50.476,14.498,26.221,55.23  c0,0-21.633,42.803-98.002,50.397c0,0,57.031,6.213,16.716,60.408c0,0-17.699,29.686-73.42,40.732c0,0,42.282,1.381,20.977,39.351  c-21.305,37.97-71.439,59.372-120.775,62.824c0,0-26.72,1.381-45.403-2.762c0,0,46.871,23.473,19.338,62.824  c0,0-20.322,27.96-71.125,26.579c0,0,13.187,43.945-24.091,60.58c-29.007,12.944-53.098-7.767-53.098-7.767  s9.833,47.118-32.449,63.687c0,0-21.141,10.873-52.607,0c0,0-24.091,53.849-109.638,16.051  C2504.303,1241.587,2569.693,924.188,2569.693,924.188z"
     stroke-width="10"
     stroke="#010002"
     fill="#F4C53D" /><path
     id="path19"
     d="M2350.908,1083.146"
     stroke-width="10"
     stroke="#010002"
     fill="#F6E200" /><path
     id="path21"
     d="M3887.314,432.298c0,0-134.384,77.806-552.896,155.612"
     stroke-width="10"
     stroke="#010002"
     fill="none" /><path
     id="path23"
     d="M1487.316,1808.209c0,0-49.82,85.606-110.13,86.987  c0,0-103.741-12.628-133.073,14.498c-20.454,18.915-41.299,34.519-49.821,82.845c-8.522,48.326,16.388,58.682,22.288,60.753  c0,0,4.589,34.519,38.676,25.544c0,0,1.967,35.899,62.276,18.64s85.219-11.736,97.019-71.799  c11.8-60.062,22.694-59.079,33.432-66.276c14.422-9.665,41.517-18.8,61.62-30.376c18.061-10.4,87.186-45.565,110.785-48.326  c23.599-2.761,18.355-82.154,18.355-82.154h-60.964l-29.499-43.493L1487.316,1808.209z"
     stroke-width="10"
     stroke="#010002"
     fill="#F4C53D" /><path
     id="path25"
     d="M3827.66,539.306c0,0-363.718,118.646-533.1,133.227"
     stroke-width="10"
     stroke="#010002"
     fill="none" /><path
     id="path27"
     d="M3684.42,672.532c0,0-213.37,66.981-463.237,109.247"
     stroke-width="10"
     stroke="#010002"
     fill="none" /><path
     id="path29"
     d="M3502.352,812.089c0,0-241.072,57.905-356.164,67.515"
     stroke-width="10"
     stroke="#010002"
     fill="none" /><path
     id="path31"
     d="M3340.599,925.914  c0,0-203.909,42.526-255.573,47.64"
     stroke-miterlimit="10"
     stroke-width="10"
     stroke="#010002"
     fill="none" /><polygon
     id="polygon33"
     points="3111.074,1236.043 3121.286,1559.596   3121.286,1559.596 3064.154,1526.454 3064.154,1526.454 2969.042,1937.05 2929.797,1908.857 3022.383,1515.486 3022.383,1515.486   2957.824,1516.673 2957.824,1516.673 "
     stroke-miterlimit="10"
     stroke-width="10"
     stroke="#010002"
     fill="#0081C6" /><path
     id="path35"
     d="M3210.804,1030.851  c0,0-148.806,22.61-208.029,21.401"
     stroke-miterlimit="10"
     stroke-width="10"
     stroke="#010002"
     fill="none" /><path
     id="path37"
     d="M3025.944,1121.29c0,0-60.166-2.826-89.081-7.626"
     stroke-miterlimit="10"
     stroke-width="10"
     stroke="#010002"
     fill="none" /><path
     id="path39"
     d="M2970.223,1217.942  c0,0-51.132-13.807-81.286-33.138"
     stroke-miterlimit="10"
     stroke-width="10"
     stroke="#010002"
     fill="none" /><path
     id="path41"
     d="M2894.837,1318.046c0,0-39.332-15.188-58.343-56.61  "
     stroke-miterlimit="10"
     stroke-width="10"
     stroke="#010002"
     fill="none" /><path
     id="path43"
     d="M2798.801,1354.981c0,0-30.482-27.27-32.449-57.646  "
     stroke-miterlimit="10"
     stroke-width="10"
     stroke="#010002"
     fill="none" /><polygon
     id="polygon45"
     points="3480.606,1379.919 3345.389,1670.648   3345.389,1670.648 3309.718,1613.138 3309.718,1613.138 3024.243,1950.461 2993.33,1915.856 3277.726,1582.802 3277.726,1582.802   3220.195,1551.93 3220.195,1551.93 "
     stroke-miterlimit="10"
     stroke-width="10"
     stroke="#010002"
     fill="#0081C6" /><path
     id="path47"
     d="M2684.739,1378.798c0,0,11.413-9.845,3.605-52.641"
     stroke-miterlimit="10"
     stroke-width="10"
     stroke="#010002"
     fill="none" /><polygon
     id="polygon49"
     points="3357.268,1166.508 3287.616,1481.82   3287.616,1481.82 3240.575,1434.235 3240.575,1434.235 2985.07,1925.529 2945.698,1902.546 3202.923,1412.255 3202.923,1412.255   3140.272,1395.804 3140.272,1395.804 "
     stroke-miterlimit="10"
     stroke-width="10"
     stroke="#010002"
     fill="#0081C6" /><path
     id="path51"
     d="M2699.488,1263.334c0,0,5.9-12.254,3.933-31.584"
     stroke-miterlimit="10"
     stroke-width="10"
     stroke="#010002"
     fill="none" /><path
     id="path53"
     d="M1679.326,1378.8c0,0-60.965,49.707-112.096,0  c0,0-20.649,24.853-61.948,17.604s-48.182-28.996-52.115-41.422c0,0-35.727,20.842-65.881,4.38  c-30.155-16.462-30.155-41.315-30.155-41.315s-52.443,10.338-79.319-25.207c-26.877-35.545-10.489-70.754,3.933-74.897  c0,0-56.7,14.854-72.109-33.828c-13.111-41.422,16.388-62.824,16.388-62.824s-119.47-0.574-168.472-37.97  c0,0-40.643-25.544-16.388-52.468c0,0-107.507-17.259-134.384-60.062c0,0-11.8-11.736-7.866-32.448c0,0,0.656-11.736,12.455-12.427  c0,0-122.6-18.937-157.983-59.372c0,0-17.044-18.64-8.522-43.493c0,0,1.803-6.559,4.753-10.96c0,0-111.604-23.559-166.669-73.266  c0,0-31.787-28.32-15.399-66.291c0,0-186.506-51.072-143.24-133.227c0,0-87.186-28.305-59.654-107.008  c0,0-72.109-36.59-40.643-94.581c30.114-55.5,122.585,9.665,232.081,39.96c0,0,296.279,93.282,442.187,118.107l414.573,617.222  l241.892,93.2L1679.326,1378.8z"
     stroke-width="10"
     stroke="#010002"
     fill="#F4C53D" /><path
     id="path55"
     d="M2914.503,650.456c0,0-68.831,27.615-91.775,65.585  c-22.944,37.971-7.833,74.874,0,96.048c3.936,10.639,52.443,104.16-4.589,171.816"
     stroke-miterlimit="10"
     stroke-width="10"
     stroke="#010002"
     fill="none" /><path
     id="path57"
     d="M1682.276,924.189c0,0-38.857-29.17-108.163,5.178  c0,0-23.333,16.068-41.687-1.536c-15.336-14.709-16.775-41.831,4.322-57.49c51.623-38.316,70.798-153.263-7.866-200.898  c0,0-114.063-67.656-532.319-174.095c0,0-35.045-9.717-53.728-5.057c-20.572,5.131-34.743,22.782-37.65,37.886  c0,0-18.715,53.188,44.206,83.62c0,0,28.408,13,57.687,21.402c0,0-32.16-6.952-45.887,24.853  c-13.111,30.376,5.9,61.443,64.898,81.464c0,0,15.957,6.21,38.676,11.736c0,0-50.476,14.498-26.221,55.23  c0,0,21.633,42.803,98.002,50.397c0,0-57.031,6.213-16.716,60.408c0,0,17.699,29.686,73.42,40.732c0,0-42.282,1.381-20.977,39.351  c21.305,37.971,71.439,59.372,120.775,62.824c0,0,26.72,1.381,45.403-2.761c0,0-46.871,23.473-19.338,62.824  c0,0,20.321,27.96,71.125,26.579c0,0-13.187,43.945,24.091,60.58c29.007,12.944,53.098-7.767,53.098-7.767  s-9.833,47.118,32.449,63.687c0,0,21.141,10.873,52.606,0c0,0,24.091,53.849,109.638,16.051  C1747.665,1241.588,1682.276,924.189,1682.276,924.189z"
     stroke-width="10"
     stroke="#010002"
     fill="#F4C53D" /><path
     id="path59"
     d="M2913.52,1057.43c0,0-0.328-0.345-24.583-7.939"
     stroke-miterlimit="10"
     stroke-width="10"
     stroke="#010002"
     fill="none" /><path
     id="path61"
     d="M3058.72,958.016c0,0-41.026,8.26-81.286,8.63"
     stroke-miterlimit="10"
     stroke-width="10"
     stroke="#010002"
     fill="none" /><path
     id="path63"
     d="M3115.424,856.877c0,0-48.182,4.833-93.414,4.142"
     stroke-miterlimit="10"
     stroke-width="10"
     stroke="#010002"
     fill="none" /><path
     id="path65"
     d="M3187.205,751.25c0,0-69.487,13.807-106.852,14.498  "
     stroke-miterlimit="10"
     stroke-width="10"
     stroke="#010002"
     fill="none" /><path
     id="path67"
     d="M3244.892,633.196  c0,0-85.698,24.461-149.462,33.138"
     stroke-miterlimit="10"
     stroke-width="10"
     stroke="#010002"
     fill="none" /><path
     id="path69"
     d="M2953.835,716.731c0,0,61.62,57.301-12.455,110.46  c0,0,30.81,48.326-30.81,98.723"
     stroke-miterlimit="10"
     stroke-width="10"
     stroke="#010002"
     fill="none" /><path
     id="path71"
     d="M1687.35,1413.579c0,0-12.552,67.393-112.091,152.219  c0,0-76.799,67.746-74.833,145.758c2.003,79.44-13.766,88.368-43.921,115.292c0,0,62.276,4.833,92.43-36.59  c0,0-1.311,69.037-10.489,75.251c0,0,19.532,1.245,47.854-29.686c0,0,17.044-17.95,32.777-24.853c0,0-18.355,47.636-3.933,91.819  c0,0,4.589-17.259,28.843-24.853c0,0,43.921-8.975,60.965-72.489c0,0,11.144-42.113,79.975-79.393c0,0,78.008-29.422,76.042-67.87  S1687.35,1413.579,1687.35,1413.579z"
     stroke-width="10"
     stroke="#010002"
     fill="#F4C53D" /><path
     id="path73"
     d="M2926.958,949.734c0,0,9.177,92.154-103.574,92.159  c0,0,21.633,82.158-87.186,79.397c0,0-12.455,65.585-91.119,52.468"
     stroke-miterlimit="10"
     stroke-width="10"
     stroke="#010002"
     fill="none" /><path
     id="path75"
     d="M2764.766,1808.21c0,0,49.821,85.606,110.13,86.987  c0,0,103.741-12.628,133.073,14.498c20.454,18.916,41.299,34.519,49.821,82.845s-16.388,58.682-22.288,60.753  c0,0-4.589,34.519-38.677,25.544c0,0-1.967,35.899-62.276,18.64s-85.219-11.736-97.019-71.799s-22.694-59.079-33.432-66.276  c-14.422-9.665-41.517-18.8-61.62-30.376c-18.061-10.4-87.186-45.565-110.785-48.326c-23.599-2.761-18.355-82.154-18.355-82.154  h60.964l29.499-43.494L2764.766,1808.21z"
     stroke-width="10"
     stroke="#010002"
     fill="#F4C53D" /><path
     id="path77"
     d="M2564.731,1413.581c0,0,12.552,67.393,112.091,152.22  c0,0,76.8,67.746,74.833,145.758c-2.003,79.44,13.766,88.368,43.921,115.292c0,0-62.276,4.833-92.43-36.59  c0,0,1.311,69.037,10.489,75.251c0,0-19.532,1.246-47.854-29.686c0,0-17.044-17.95-32.777-24.853c0,0,18.355,47.636,3.933,91.82  c0,0-4.589-17.259-28.844-24.853c0,0-43.921-8.975-60.965-72.489c0,0-11.144-42.113-79.975-79.393c0,0-78.009-29.422-76.042-67.87  C2393.078,1619.738,2564.731,1413.581,2564.731,1413.581z"
     stroke-width="10"
     stroke="#010002"
     fill="#F4C53D" /><path
     id="path79"
     d="M2818.355,1895.197c0,0,17.839,3.97,56.54,0"
     stroke-width="10"
     stroke="#010002"
     fill="none" /><path
     id="path81"
     d="M2983.714,1943.523  c0,0,54.409-8.284,51.787,109.769"
     stroke-miterlimit="10"
     stroke-width="10"
     stroke="#010002"
     fill="none" /><path
     id="path83"
     d="M2950.937,1970.448  c0,0,49.165-6.213,45.887,108.389"
     stroke-miterlimit="10"
     stroke-width="10"
     stroke="#010002"
     fill="none" /><path
     id="path85"
     d="M2476.331,1694.299c0,0,23.599,4.833,39.988,23.473  c16.388,18.64,47.854,15.188,47.854,15.188s-17.044-13.807-22.944-48.326c-5.9-34.519-24.91-44.874-24.91-44.874"
     stroke-width="10"
     stroke="#010002"
     fill="none" /><path
     id="path87"
     d="M2572.618,1607.071c0,0,23.599,4.833,39.987,23.473  c16.388,18.64,47.854,15.188,47.854,15.188s-17.044-13.807-22.944-48.326c-5.9-34.519-24.91-44.874-24.91-44.874"
     stroke-width="10"
     stroke="#010002"
     fill="none" /><path
     id="path89"
     d="M2588.844,1741.069c0,0,20.605,4.219,34.914,20.495  c14.309,16.275,41.783,13.261,41.783,13.261s-14.882-12.056-20.033-42.195c-5.151-30.139-21.75-39.181-21.75-39.181"
     stroke-width="10"
     stroke="#010002"
     fill="none" /><path
     id="path91"
     d="M2203.159,2282.496  c0,0,17.869,78.856,79.975,72.489c0,0,43.921-4.142,40.643-77.322c0,0,64.898,34.519,75.386-51.088c0,0,58.998,13.808,58.342-66.276  c0,0,55.065,9.665,48.51-61.443c0,0,59.654,15.878,59.654-51.088c0,0,139.628-23.157-151.428-288.576l-259.591,154.643  L2203.159,2282.496z"
     stroke-miterlimit="10"
     stroke-width="10"
     stroke="#010002"
     fill="#F4C53D" /><path
     id="path93"
     d="M2174.316,1928.61c0,0,43.265,38.385,74.075-18.916  c0,0,41.954-2.071,48.51-33.828c0,0,34.088-3.452,40.643-35.899c0,0,46.543-4.833,45.232-44.184c0,0,84.618-6.532,0.027-102.334  c-84.591-95.802-228.153,158.945-228.153,158.945L2174.316,1928.61z"
     stroke-width="10"
     stroke="#010002"
     fill="#F4C53D" /><path
     id="path95"
     d="M2323.777,2277.663  c0,0-6.555-138.765-126.823-337.594"
     stroke-miterlimit="10"
     stroke-width="10"
     stroke="#010002"
     fill="none" /><path
     id="path97"
     d="M2399.164,2226.576  c0,0,18.683-80.083-150.773-316.881c0,0,19.666-56.61-40.643-92.855"
     stroke-miterlimit="10"
     stroke-width="10"
     stroke="#010002"
     fill="none" /><path
     id="path99"
     d="M2457.506,2160.3c0,0,5.244-86.642-160.605-284.433  c0,0,14.65-51.088-45.445-91.82"
     stroke-miterlimit="10"
     stroke-width="10"
     stroke="#010002"
     fill="none" /><path
     id="path101"
     d="M2506.015,2098.857  c0,0-6.228-87.677-168.472-258.89c0,0,8.117-52.468-50.023-84.916"
     stroke-miterlimit="10"
     stroke-width="10"
     stroke="#010002"
     fill="none" /><path
     id="path103"
     d="M2565.669,2047.769  c0,0-11.8-100.104-182.894-251.986c0,0,5.9-39.351-51.132-79.393"
     stroke-miterlimit="10"
     stroke-width="10"
     stroke="#010002"
     fill="none" /><path
     id="path105"
     d="M2048.922,2282.495  c0,0-17.869,78.856-79.975,72.489c0,0-43.921-4.142-40.643-77.322c0,0-64.898,34.519-75.386-51.087c0,0-58.998,13.807-58.342-66.276  c0,0-55.065,9.665-48.509-61.443c0,0-59.654,15.879-59.654-51.088c0,0-139.628-23.157,151.428-288.576l259.591,154.643  L2048.922,2282.495z"
     stroke-miterlimit="10"
     stroke-width="10"
     stroke="#010002"
     fill="#F4C53D" /><path
     id="path107"
     d="M2077.766,1928.61c0,0-43.265,38.385-74.075-18.915  c0,0-41.954-2.071-48.509-33.828c0,0-34.088-3.452-40.643-35.899c0,0-46.543-4.833-45.232-44.184c0,0-84.618-6.532-0.027-102.334  c84.591-95.802,228.153,158.945,228.153,158.945L2077.766,1928.61z"
     stroke-width="10"
     stroke="#010002"
     fill="#F4C53D" /><path
     id="path109"
     d="M1928.304,2277.663  c0,0,6.555-138.765,126.824-337.594"
     stroke-miterlimit="10"
     stroke-width="10"
     stroke="#010002"
     fill="none" /><path
     id="path111"
     d="M1852.918,2226.575  c0,0-18.683-80.083,150.773-316.881c0,0-19.666-56.611,40.643-92.855"
     stroke-miterlimit="10"
     stroke-width="10"
     stroke="#010002"
     fill="none" /><path
     id="path113"
     d="M2126.041,1904.862c41.94,0,89.463,261.996,77.13,419.842  c-4.479,57.327-35.19,104.151-77.13,104.151s-72.651-46.824-77.13-104.151C2036.578,2166.859,2084.101,1904.862,2126.041,1904.862"
     stroke-width="10"
     stroke="#010002"
     fill="#F4C53D" /><path
     id="path115"
     d="M1794.575,2160.299  c0,0-5.244-86.642,160.606-284.433c0,0-14.651-51.088,45.445-91.82"
     stroke-miterlimit="10"
     stroke-width="10"
     stroke="#010002"
     fill="none" /><path
     id="path117"
     d="M1746.066,2098.856  c0,0,6.228-87.677,168.472-258.89c0,0-8.117-52.468,50.023-84.916"
     stroke-miterlimit="10"
     stroke-width="10"
     stroke="#010002"
     fill="none" /><ellipse
     id="ellipse119"
     ry="85.951"
     rx="58.032"
     cy="1902.791"
     cx="2126.041"
     stroke-width="10"
     stroke="#010002"
     fill="#F4C53D" /><path
     id="path121"
     d="M1686.412,2047.769  c0,0,11.8-100.104,182.894-251.986c0,0-5.9-39.351,51.132-79.393"
     stroke-miterlimit="10"
     stroke-width="10"
     stroke="#010002"
     fill="none" /><path
     id="path123"
     d="M2126.041,1884.017c0,0,492.201-218.11,493.429-722.685h-986.859  C1633.84,1665.906,2126.041,1884.017,2126.041,1884.017z"
     stroke-width="10"
     stroke="#010002"
     fill="#FFFFFF" /><line
     id="line125"
     y2="1161.331"
     x2="1936.26"
     y1="1161.331"
     x1="1860.348"
     stroke-miterlimit="10"
     stroke-width="10"
     stroke="#010002"
     fill="none" /><line
     id="line127"
     y2="1161.331"
     x2="1784.436"
     y1="1161.331"
     x1="1708.523"
     stroke-miterlimit="10"
     stroke-width="10"
     stroke="#010002"
     fill="none" /><line
     id="line129"
     y2="1161.331"
     x2="2088.085"
     y1="1161.331"
     x1="2012.173"
     stroke-miterlimit="10"
     stroke-width="10"
     stroke="#010002"
     fill="none" /><path
     id="path131"
     d="M1708.523,1161.331v322.397c0,0,37.701,74.773,75.912,121.668v-444.064  H1708.523z"
     stroke-width="10"
     stroke="#010002"
     fill="#A60032" /><path
     id="path133"
     d="M1860.348,1161.331v531.451c0,0,47.473,46.55,75.912,68.989v-600.44  H1860.348z"
     stroke-width="10"
     stroke="#010002"
     fill="#A60032" /><path
     id="path135"
     d="M2012.173,1161.331v656.92c0,0,54.16,34.979,75.912,46.458v-703.378  H2012.173z"
     stroke-width="10"
     stroke="#010002"
     fill="#A60032" /><line
     id="line137"
     y2="1161.331"
     x2="1784.436"
     y1="1161.331"
     x1="1708.523"
     stroke-width="10"
     stroke="#010002"
     fill="none" /><line
     id="line139"
     y2="1161.331"
     x2="1936.26"
     y1="1161.331"
     x1="1860.348"
     stroke-width="10"
     stroke="#010002"
     fill="none" /><line
     id="line141"
     y2="1161.331"
     x2="2088.085"
     y1="1161.331"
     x1="2012.173"
     stroke-width="10"
     stroke="#010002"
     fill="none" /><path
     id="path143"
     d="M2543.557,1161.331v322.397c0,0-37.701,74.773-75.912,121.667v-444.064  H2543.557z"
     stroke-width="10"
     stroke="#010002"
     fill="#A60032" /><path
     id="path145"
     d="M2391.732,1161.331v531.451c0,0-47.473,46.55-75.912,68.989v-600.44  H2391.732z"
     stroke-width="10"
     stroke="#010002"
     fill="#A60032" /><path
     id="path147"
     d="M2239.908,1161.331v656.92c0,0-54.161,34.979-75.912,46.458v-703.378  H2239.908z"
     stroke-width="10"
     stroke="#010002"
     fill="#A60032" /><line
     id="line149"
     y2="2427.86"
     x2="2600.243"
     y1="2371.942"
     x1="2645.964"
     fill="none" /><line
     id="line151"
     y2="2482.224"
     x2="2669.562"
     y1="2365.729"
     x1="2543.557"
     fill="none" /><path
     id="path153"
     d="M2921.787,2075.339l-19.139,78.25l0,0  l52.396,52.196l0,0l-74.053,312.797l-65.867-88.472l-97.596,45.55l74.054-312.798l0,0l68.656-19.142l0,0l17.826-78.111  C2878.064,2065.61,2898.83,2057.478,2921.787,2075.339z"
     stroke-miterlimit="10"
     stroke-width="10"
     stroke="#010002"
     fill="#0081C6" /><path
     id="path155"
     d="M2939.33,2023.741l-37.718,70.367l0,0  l37.783,64.7l0,0l-148.402,281.954l-41.88-103.411l-105.465,17.396l148.403-281.955l0,0l71.021,0.224l0,0l36.415-70.591  C2899.487,2002.426,2925.978,2002.371,2939.33,2023.741z"
     stroke-miterlimit="10"
     stroke-width="10"
     stroke="#010002"
     fill="#0081C6" /><path
     id="path157"
     d="M2945.698,2044.204l-100.322,127.45l0,0  l22.995,71.992l0,0l-204.824,239.57l-18.718-110.682l-106.477-8.035l204.824-239.571l0,0l69.153,17.044l0,0l106.412-135.301  C2918.742,2006.672,2947.282,2020.845,2945.698,2044.204z"
     stroke-miterlimit="10"
     stroke-width="10"
     stroke="#010002"
     fill="#0081C6" /><path
     id="path159"
     d="M1375.97,1732.959"
     stroke-miterlimit="10"
     stroke-width="10"
     stroke="#010002"
     fill="none" /><path
     id="path161"
     d="M364.655,432.299c0,0,134.384,77.806,552.895,155.612"
     stroke-width="10"
     stroke="#010002"
     fill="none" /><path
     id="path163"
     d="M424.308,539.307c0,0,363.717,118.646,533.1,133.227"
     stroke-width="10"
     stroke="#010002"
     fill="none" /><path
     id="path165"
     d="M567.549,672.533c0,0,213.37,66.981,463.237,109.247"
     stroke-width="10"
     stroke="#010002"
     fill="none" /><path
     id="path167"
     d="M749.616,812.09c0,0,241.072,57.905,356.164,67.515"
     stroke-width="10"
     stroke="#010002"
     fill="none" /><path
     id="path169"
     d="M911.369,925.915c0,0,203.909,42.526,255.573,47.64  "
     stroke-miterlimit="10"
     stroke-width="10"
     stroke="#010002"
     fill="none" /><path
     id="path171"
     d="M1041.165,1030.852  c0,0,148.806,22.61,208.029,21.401"
     stroke-miterlimit="10"
     stroke-width="10"
     stroke="#010002"
     fill="none" /><path
     id="path173"
     d="M1226.025,1121.291c0,0,60.166-2.826,89.081-7.626"
     stroke-miterlimit="10"
     stroke-width="10"
     stroke="#010002"
     fill="none" /><path
     id="path175"
     d="M1281.745,1217.943  c0,0,51.132-13.807,81.286-33.138"
     stroke-miterlimit="10"
     stroke-width="10"
     stroke="#010002"
     fill="none" /><path
     id="path177"
     d="M1357.132,1318.047c0,0,39.332-15.188,58.342-56.61  "
     stroke-miterlimit="10"
     stroke-width="10"
     stroke="#010002"
     fill="none" /><path
     id="path179"
     d="M1453.167,1354.982c0,0,30.482-27.27,32.449-57.646  "
     stroke-miterlimit="10"
     stroke-width="10"
     stroke="#010002"
     fill="none" /><path
     id="path181"
     d="M1567.23,1378.8c0,0-11.413-9.845-3.605-52.641"
     stroke-miterlimit="10"
     stroke-width="10"
     stroke="#010002"
     fill="none" /><path
     id="path183"
     d="M1552.48,1263.335c0,0-5.9-12.254-3.933-31.585"
     stroke-miterlimit="10"
     stroke-width="10"
     stroke="#010002"
     fill="none" /><path
     id="path185"
     d="M1337.466,650.457c0,0,68.831,27.615,91.775,65.585  c22.944,37.971,7.833,74.874,0,96.048c-3.936,10.639-52.443,104.16,4.589,171.816"
     stroke-miterlimit="10"
     stroke-width="10"
     stroke="#010002"
     fill="none" /><path
     id="path187"
     d="M1338.449,1057.431c0,0,0.328-0.345,24.583-7.939"
     stroke-miterlimit="10"
     stroke-width="10"
     stroke="#010002"
     fill="none" /><path
     id="path189"
     d="M1193.248,958.018c0,0,41.026,8.26,81.286,8.63"
     stroke-miterlimit="10"
     stroke-width="10"
     stroke="#010002"
     fill="none" /><path
     id="path191"
     d="M1136.545,856.878c0,0,48.182,4.833,93.413,4.142"
     stroke-miterlimit="10"
     stroke-width="10"
     stroke="#010002"
     fill="none" /><path
     id="path193"
     d="M1315.627,2061.29  c0,0-1.475-41.938,51.621-45.044l156.337,217.456c0,0-5.9,13.979-76.693,12.426c0,0-7.498-0.049-11.431,8.235  C1429.422,2267.08,1315.627,2061.29,1315.627,2061.29z"
     stroke-miterlimit="10"
     stroke-width="10"
     stroke="#010002"
     fill="#369443" /><path
     id="path195"
     d="M1064.764,751.251  c0,0,69.486,13.807,106.852,14.498"
     stroke-miterlimit="10"
     stroke-width="10"
     stroke="#010002"
     fill="none" /><path
     id="path197"
     d="M1007.077,633.197  c0,0,85.698,24.461,149.462,33.138"
     stroke-miterlimit="10"
     stroke-width="10"
     stroke="#010002"
     fill="none" /><path
     id="path199"
     d="M1298.134,716.732c0,0-61.62,57.301,12.455,110.46  c0,0-30.81,48.326,30.81,98.723"
     stroke-miterlimit="10"
     stroke-width="10"
     stroke="#010002"
     fill="none" /><path
     id="path201"
     d="M1325.01,949.735c0,0-9.177,92.154,103.574,92.159  c0,0-21.633,82.158,87.186,79.397c0,0,12.455,65.585,91.119,52.468"
     stroke-miterlimit="10"
     stroke-width="10"
     stroke="#010002"
     fill="none" /><path
     id="path203"
     d="M1433.564,1895.196c0,0-17.839,3.97-56.54,0"
     stroke-width="10"
     stroke="#010002"
     fill="none" /><path
     id="path205"
     d="M1268.206,1943.522  c0,0-54.409-8.285-51.787,109.769"
     stroke-miterlimit="10"
     stroke-width="10"
     stroke="#010002"
     fill="none" /><path
     id="path207"
     d="M1300.983,1970.446  c0,0-49.165-6.213-45.887,108.388"
     stroke-miterlimit="10"
     stroke-width="10"
     stroke="#010002"
     fill="none" /><path
     id="path209"
     d="M1775.75,1694.297c0,0-23.599,4.833-39.988,23.473  s-47.854,15.188-47.854,15.188s17.044-13.807,22.944-48.326c5.9-34.519,24.91-44.874,24.91-44.874"
     stroke-width="10"
     stroke="#010002"
     fill="none" /><path
     id="path211"
     d="M1679.463,1607.07c0,0-23.599,4.833-39.987,23.473  c-16.388,18.64-47.854,15.188-47.854,15.188s17.044-13.807,22.944-48.326c5.9-34.519,24.91-44.874,24.91-44.874"
     stroke-width="10"
     stroke="#010002"
     fill="none" /><path
     id="path213"
     d="M1663.237,1741.068c0,0-20.605,4.219-34.914,20.495  c-14.309,16.275-41.783,13.261-41.783,13.261s14.882-12.056,20.033-42.195c5.151-30.139,21.75-39.181,21.75-39.181"
     stroke-width="10"
     stroke="#010002"
     fill="none" /><path
     id="path215"
     d="M2619.471,794.743  c0,0-241.518,126.338-493.429-10.356c-251.911,136.694-493.429,10.356-493.429,10.356v366.588h986.859V794.743z"
     stroke-miterlimit="10"
     stroke-width="10"
     stroke="#010002"
     fill="#162667" /><path
     id="path217"
     d="M403.725,1745.405  c23.917-9.763,41.14-19.185,41.067-44.706c-0.017-6.084-3.398-19.544-10.184-40.379l-160.591-490.801  c-9.511-29.158-16.699-46.49-20.035-52.877c-7.219-13.822-21.39-19.451-40.477-27.401h19.768H397.81h19.803  c-22.172,10.477-42.387,18.795-42.197,42.302c0.072,8.975,2.598,21.632,7.804,37.976l123.024,385.136l122.902-385.136  c5.206-16.344,7.898-29,7.809-37.976c-0.237-24.159-21.287-32.868-41.971-42.302h19.572h158.551h19.686  c-18.087,7.248-32.827,12.926-40.4,27.401c-3.34,6.385-10.524,23.72-20.03,52.877L571.772,1660.32  c-6.792,20.835-9.25,34.522-10.185,40.86c0,0-7.389,31.04,41.068,44.225H403.725z"
     stroke-miterlimit="10"
     stroke-width="10"
     stroke="#010002"
     fill="#0081C6" /><path
     id="path219"
     d="M3825.99,1694.931v-555.696  c0-9.614-1.585-16.982-4.75-22.112c-3.17-5.122-16.965-19.896-36.651-27.881h19.686h144.542h19.686  c-19.686,6.518-33.486,22.353-36.651,27.641c-3.17,5.288-4.75,12.738-4.75,22.353v555.696c0,9.937,1.638,17.546,4.92,22.834  c3.276,5.287,16.795,18.194,36.481,27.64h-19.686h-144.542h-19.686c19.686-8.957,33.48-22.75,36.651-27.881  C3824.406,1712.402,3825.99,1704.868,3825.99,1694.931z"
     stroke-miterlimit="10"
     stroke-width="10"
     stroke="#010002"
     fill="#0081C6" /></svg>